<mxfile host="app.diagrams.net" agent="Mozilla/5.0 (Windows NT 10.0; Win64; x64) AppleWebKit/537.36 (KHTML, like Gecko) Chrome/135.0.0.0 Safari/537.36" version="26.2.12">
  <diagram name="Page-1" id="7-BlQS8abMKfA9h8ZTfj">
    <mxGraphModel dx="2704" dy="1505" grid="0" gridSize="10" guides="1" tooltips="1" connect="1" arrows="1" fold="1" page="0" pageScale="1" pageWidth="827" pageHeight="1169" math="0" shadow="0">
      <root>
        <mxCell id="0" />
        <mxCell id="1" parent="0" />
        <mxCell id="0UxCvQG6T92VqQAPfvvK-161" value="PU Database" style="rounded=0;whiteSpace=wrap;html=1;dashed=1;fillColor=#f5f5f5;strokeColor=#666666;verticalAlign=top;fontStyle=1;fontColor=#333333;" vertex="1" parent="1">
          <mxGeometry x="-483" y="1315" width="1039" height="365" as="geometry" />
        </mxCell>
        <mxCell id="0UxCvQG6T92VqQAPfvvK-165" style="edgeStyle=none;curved=1;rounded=0;orthogonalLoop=1;jettySize=auto;html=1;fontSize=12;startSize=8;endSize=8;exitX=0.062;exitY=1.006;exitDx=0;exitDy=0;exitPerimeter=0;entryX=0.062;entryY=0.005;entryDx=0;entryDy=0;entryPerimeter=0;dashed=1;strokeWidth=2;" edge="1" parent="1" source="0UxCvQG6T92VqQAPfvvK-139" target="0UxCvQG6T92VqQAPfvvK-161">
          <mxGeometry relative="1" as="geometry" />
        </mxCell>
        <mxCell id="0UxCvQG6T92VqQAPfvvK-192" style="edgeStyle=none;curved=1;rounded=0;orthogonalLoop=1;jettySize=auto;html=1;entryX=0.5;entryY=1;entryDx=0;entryDy=0;fontSize=12;startSize=8;endSize=8;dashed=1;strokeWidth=2;startArrow=classicThin;startFill=1;" edge="1" parent="1" target="0UxCvQG6T92VqQAPfvvK-190">
          <mxGeometry relative="1" as="geometry">
            <mxPoint x="-419" y="423" as="sourcePoint" />
          </mxGeometry>
        </mxCell>
        <mxCell id="0UxCvQG6T92VqQAPfvvK-139" value="PU Application" style="rounded=0;whiteSpace=wrap;html=1;verticalAlign=top;fontStyle=1;fillColor=#eeeeee;strokeColor=#36393d;dashed=1;" vertex="1" parent="1">
          <mxGeometry x="-483" y="426" width="1038" height="654" as="geometry" />
        </mxCell>
        <mxCell id="0UxCvQG6T92VqQAPfvvK-8" value="" style="group" vertex="1" connectable="0" parent="1">
          <mxGeometry x="74" y="129" width="120" height="109" as="geometry" />
        </mxCell>
        <mxCell id="0UxCvQG6T92VqQAPfvvK-6" value="HA Proxy" style="rounded=1;whiteSpace=wrap;html=1;verticalAlign=top;fontStyle=1;dashed=1;" vertex="1" parent="0UxCvQG6T92VqQAPfvvK-8">
          <mxGeometry width="120" height="109" as="geometry" />
        </mxCell>
        <mxCell id="0UxCvQG6T92VqQAPfvvK-5" value="Load Balancer" style="sketch=0;outlineConnect=0;fontColor=#232F3E;gradientColor=none;fillColor=#8C4FFF;strokeColor=none;dashed=0;verticalLabelPosition=bottom;verticalAlign=top;align=center;html=1;fontSize=12;fontStyle=0;aspect=fixed;pointerEvents=1;shape=mxgraph.aws4.application_load_balancer;" vertex="1" parent="0UxCvQG6T92VqQAPfvvK-8">
          <mxGeometry x="34" y="28.5" width="52" height="52" as="geometry" />
        </mxCell>
        <mxCell id="0UxCvQG6T92VqQAPfvvK-179" value="" style="edgeStyle=none;curved=1;rounded=0;orthogonalLoop=1;jettySize=auto;html=1;fontSize=12;startSize=8;endSize=8;startArrow=classic;startFill=1;dashed=1;strokeWidth=2;" edge="1" parent="1" source="0UxCvQG6T92VqQAPfvvK-3" target="0UxCvQG6T92VqQAPfvvK-139">
          <mxGeometry relative="1" as="geometry">
            <mxPoint x="-311" y="425" as="targetPoint" />
          </mxGeometry>
        </mxCell>
        <mxCell id="0UxCvQG6T92VqQAPfvvK-185" style="edgeStyle=orthogonalEdgeStyle;rounded=0;orthogonalLoop=1;jettySize=auto;html=1;entryX=0;entryY=0.5;entryDx=0;entryDy=0;fontSize=12;startSize=8;endSize=8;exitX=1;exitY=0.5;exitDx=0;exitDy=0;dashed=1;strokeWidth=2;" edge="1" parent="1" source="0UxCvQG6T92VqQAPfvvK-3" target="0UxCvQG6T92VqQAPfvvK-175">
          <mxGeometry relative="1" as="geometry" />
        </mxCell>
        <mxCell id="0UxCvQG6T92VqQAPfvvK-3" value="KONG API Gateway&amp;nbsp;" style="rounded=1;whiteSpace=wrap;html=1;fontStyle=1;dashed=1;strokeWidth=1;strokeColor=#36393d;fillColor=#cdeb8b;" vertex="1" parent="1">
          <mxGeometry x="-151" y="279" width="369" height="60" as="geometry" />
        </mxCell>
        <mxCell id="0UxCvQG6T92VqQAPfvvK-184" style="edgeStyle=none;curved=1;rounded=0;orthogonalLoop=1;jettySize=auto;html=1;entryX=0;entryY=0.5;entryDx=0;entryDy=0;fontSize=12;startSize=8;endSize=8;strokeWidth=2;dashed=1;" edge="1" parent="1" target="0UxCvQG6T92VqQAPfvvK-174">
          <mxGeometry relative="1" as="geometry">
            <mxPoint x="192" y="310" as="sourcePoint" />
          </mxGeometry>
        </mxCell>
        <mxCell id="0UxCvQG6T92VqQAPfvvK-2" value="" style="sketch=0;outlineConnect=0;strokeColor=#36393d;fillColor=#cdeb8b;dashed=0;verticalLabelPosition=bottom;verticalAlign=top;align=center;html=1;fontSize=12;fontStyle=0;aspect=fixed;shape=mxgraph.aws4.resourceIcon;resIcon=mxgraph.aws4.nat_gateway;" vertex="1" parent="1">
          <mxGeometry x="130" y="281" width="57" height="57" as="geometry" />
        </mxCell>
        <mxCell id="0UxCvQG6T92VqQAPfvvK-138" value="" style="group" vertex="1" connectable="0" parent="1">
          <mxGeometry x="-471" y="456" width="1005" height="611" as="geometry" />
        </mxCell>
        <mxCell id="0UxCvQG6T92VqQAPfvvK-23" value="" style="group" vertex="1" connectable="0" parent="0UxCvQG6T92VqQAPfvvK-138">
          <mxGeometry x="6" width="231" height="245" as="geometry" />
        </mxCell>
        <mxCell id="0UxCvQG6T92VqQAPfvvK-9" value="Domain Payment Services" style="rounded=1;whiteSpace=wrap;html=1;verticalAlign=top;fontStyle=1;dashed=1;strokeColor=#0000FF;" vertex="1" parent="0UxCvQG6T92VqQAPfvvK-23">
          <mxGeometry width="231" height="245" as="geometry" />
        </mxCell>
        <mxCell id="0UxCvQG6T92VqQAPfvvK-16" value="" style="group" vertex="1" connectable="0" parent="0UxCvQG6T92VqQAPfvvK-23">
          <mxGeometry x="13" y="35" width="202" height="60" as="geometry" />
        </mxCell>
        <mxCell id="0UxCvQG6T92VqQAPfvvK-14" value="" style="rounded=1;whiteSpace=wrap;html=1;align=right;" vertex="1" parent="0UxCvQG6T92VqQAPfvvK-16">
          <mxGeometry width="202" height="60" as="geometry" />
        </mxCell>
        <mxCell id="0UxCvQG6T92VqQAPfvvK-15" value="Payment Instruction Service" style="html=1;verticalLabelPosition=middle;align=left;labelBackgroundColor=#ffffff;verticalAlign=middle;strokeWidth=2;strokeColor=#0080F0;shadow=0;dashed=0;shape=mxgraph.ios7.icons.settings;labelPosition=right;" vertex="1" parent="0UxCvQG6T92VqQAPfvvK-16">
          <mxGeometry x="13" y="15" width="30" height="30" as="geometry" />
        </mxCell>
        <mxCell id="0UxCvQG6T92VqQAPfvvK-17" value="" style="group" vertex="1" connectable="0" parent="0UxCvQG6T92VqQAPfvvK-23">
          <mxGeometry x="13" y="101" width="201" height="60" as="geometry" />
        </mxCell>
        <mxCell id="0UxCvQG6T92VqQAPfvvK-10" value="" style="rounded=1;whiteSpace=wrap;html=1;align=right;" vertex="1" parent="0UxCvQG6T92VqQAPfvvK-17">
          <mxGeometry width="201" height="60" as="geometry" />
        </mxCell>
        <mxCell id="0UxCvQG6T92VqQAPfvvK-11" value="Standing Order Service" style="html=1;verticalLabelPosition=middle;align=left;labelBackgroundColor=#ffffff;verticalAlign=middle;strokeWidth=2;strokeColor=#0080F0;shadow=0;dashed=0;shape=mxgraph.ios7.icons.settings;labelPosition=right;" vertex="1" parent="0UxCvQG6T92VqQAPfvvK-17">
          <mxGeometry x="13" y="15" width="30" height="30" as="geometry" />
        </mxCell>
        <mxCell id="0UxCvQG6T92VqQAPfvvK-18" value="" style="group" vertex="1" connectable="0" parent="0UxCvQG6T92VqQAPfvvK-23">
          <mxGeometry x="13" y="166" width="201" height="60" as="geometry" />
        </mxCell>
        <mxCell id="0UxCvQG6T92VqQAPfvvK-19" value="" style="rounded=1;whiteSpace=wrap;html=1;align=right;" vertex="1" parent="0UxCvQG6T92VqQAPfvvK-18">
          <mxGeometry width="201" height="60" as="geometry" />
        </mxCell>
        <mxCell id="0UxCvQG6T92VqQAPfvvK-20" value="Repair Payment Service" style="html=1;verticalLabelPosition=middle;align=left;labelBackgroundColor=#ffffff;verticalAlign=middle;strokeWidth=2;strokeColor=#0080F0;shadow=0;dashed=0;shape=mxgraph.ios7.icons.settings;labelPosition=right;" vertex="1" parent="0UxCvQG6T92VqQAPfvvK-18">
          <mxGeometry x="13" y="15" width="30" height="30" as="geometry" />
        </mxCell>
        <mxCell id="0UxCvQG6T92VqQAPfvvK-24" value="" style="group" vertex="1" connectable="0" parent="0UxCvQG6T92VqQAPfvvK-138">
          <mxGeometry x="262" width="231" height="245" as="geometry" />
        </mxCell>
        <mxCell id="0UxCvQG6T92VqQAPfvvK-25" value="Domain Reporting Services" style="rounded=1;whiteSpace=wrap;html=1;verticalAlign=top;fontStyle=1;dashed=1;strokeColor=#0000FF;" vertex="1" parent="0UxCvQG6T92VqQAPfvvK-24">
          <mxGeometry width="231" height="245" as="geometry" />
        </mxCell>
        <mxCell id="0UxCvQG6T92VqQAPfvvK-26" value="" style="group" vertex="1" connectable="0" parent="0UxCvQG6T92VqQAPfvvK-24">
          <mxGeometry x="13" y="35" width="202" height="60" as="geometry" />
        </mxCell>
        <mxCell id="0UxCvQG6T92VqQAPfvvK-27" value="" style="rounded=1;whiteSpace=wrap;html=1;align=right;" vertex="1" parent="0UxCvQG6T92VqQAPfvvK-26">
          <mxGeometry width="202" height="60" as="geometry" />
        </mxCell>
        <mxCell id="0UxCvQG6T92VqQAPfvvK-28" value="Reconciliation Rpt Service" style="html=1;verticalLabelPosition=middle;align=left;labelBackgroundColor=#ffffff;verticalAlign=middle;strokeWidth=2;strokeColor=#0080F0;shadow=0;dashed=0;shape=mxgraph.ios7.icons.settings;labelPosition=right;" vertex="1" parent="0UxCvQG6T92VqQAPfvvK-26">
          <mxGeometry x="13" y="15" width="30" height="30" as="geometry" />
        </mxCell>
        <mxCell id="0UxCvQG6T92VqQAPfvvK-29" value="" style="group" vertex="1" connectable="0" parent="0UxCvQG6T92VqQAPfvvK-24">
          <mxGeometry x="13" y="101" width="201" height="60" as="geometry" />
        </mxCell>
        <mxCell id="0UxCvQG6T92VqQAPfvvK-30" value="" style="rounded=1;whiteSpace=wrap;html=1;align=right;" vertex="1" parent="0UxCvQG6T92VqQAPfvvK-29">
          <mxGeometry width="201" height="60" as="geometry" />
        </mxCell>
        <mxCell id="0UxCvQG6T92VqQAPfvvK-31" value="Nostro Rpt Service" style="html=1;verticalLabelPosition=middle;align=left;labelBackgroundColor=#ffffff;verticalAlign=middle;strokeWidth=2;strokeColor=#0080F0;shadow=0;dashed=0;shape=mxgraph.ios7.icons.settings;labelPosition=right;" vertex="1" parent="0UxCvQG6T92VqQAPfvvK-29">
          <mxGeometry x="13" y="15" width="30" height="30" as="geometry" />
        </mxCell>
        <mxCell id="0UxCvQG6T92VqQAPfvvK-32" value="" style="group" vertex="1" connectable="0" parent="0UxCvQG6T92VqQAPfvvK-24">
          <mxGeometry x="13" y="166" width="201" height="60" as="geometry" />
        </mxCell>
        <mxCell id="0UxCvQG6T92VqQAPfvvK-33" value="" style="rounded=1;whiteSpace=wrap;html=1;align=right;" vertex="1" parent="0UxCvQG6T92VqQAPfvvK-32">
          <mxGeometry width="201" height="60" as="geometry" />
        </mxCell>
        <mxCell id="0UxCvQG6T92VqQAPfvvK-34" value="Payment Rpt Service" style="html=1;verticalLabelPosition=middle;align=left;labelBackgroundColor=#ffffff;verticalAlign=middle;strokeWidth=2;strokeColor=#0080F0;shadow=0;dashed=0;shape=mxgraph.ios7.icons.settings;labelPosition=right;" vertex="1" parent="0UxCvQG6T92VqQAPfvvK-32">
          <mxGeometry x="13" y="15" width="30" height="30" as="geometry" />
        </mxCell>
        <mxCell id="0UxCvQG6T92VqQAPfvvK-38" value="Domain Email Services" style="rounded=1;whiteSpace=wrap;html=1;verticalAlign=top;fontStyle=1;dashed=1;strokeColor=#0000FF;" vertex="1" parent="0UxCvQG6T92VqQAPfvvK-138">
          <mxGeometry x="514" width="231" height="245" as="geometry" />
        </mxCell>
        <mxCell id="0UxCvQG6T92VqQAPfvvK-39" value="" style="group" vertex="1" connectable="0" parent="0UxCvQG6T92VqQAPfvvK-138">
          <mxGeometry x="527" y="35" width="202" height="60" as="geometry" />
        </mxCell>
        <mxCell id="0UxCvQG6T92VqQAPfvvK-40" value="" style="rounded=1;whiteSpace=wrap;html=1;align=right;" vertex="1" parent="0UxCvQG6T92VqQAPfvvK-39">
          <mxGeometry width="202" height="60" as="geometry" />
        </mxCell>
        <mxCell id="0UxCvQG6T92VqQAPfvvK-41" value="Email Service" style="html=1;verticalLabelPosition=middle;align=left;labelBackgroundColor=#ffffff;verticalAlign=middle;strokeWidth=2;strokeColor=#0080F0;shadow=0;dashed=0;shape=mxgraph.ios7.icons.settings;labelPosition=right;" vertex="1" parent="0UxCvQG6T92VqQAPfvvK-39">
          <mxGeometry x="13" y="15" width="30" height="30" as="geometry" />
        </mxCell>
        <mxCell id="0UxCvQG6T92VqQAPfvvK-52" value="" style="group" vertex="1" connectable="0" parent="0UxCvQG6T92VqQAPfvvK-138">
          <mxGeometry x="774" width="231" height="245" as="geometry" />
        </mxCell>
        <mxCell id="0UxCvQG6T92VqQAPfvvK-53" value="Domain Log Services" style="rounded=1;whiteSpace=wrap;html=1;verticalAlign=top;fontStyle=1;dashed=1;strokeColor=#0000FF;" vertex="1" parent="0UxCvQG6T92VqQAPfvvK-52">
          <mxGeometry width="231" height="245" as="geometry" />
        </mxCell>
        <mxCell id="0UxCvQG6T92VqQAPfvvK-54" value="" style="group" vertex="1" connectable="0" parent="0UxCvQG6T92VqQAPfvvK-52">
          <mxGeometry x="13" y="35" width="202" height="60" as="geometry" />
        </mxCell>
        <mxCell id="0UxCvQG6T92VqQAPfvvK-55" value="" style="rounded=1;whiteSpace=wrap;html=1;align=right;" vertex="1" parent="0UxCvQG6T92VqQAPfvvK-54">
          <mxGeometry width="202" height="60" as="geometry" />
        </mxCell>
        <mxCell id="0UxCvQG6T92VqQAPfvvK-56" value="Logging Service" style="html=1;verticalLabelPosition=middle;align=left;labelBackgroundColor=#ffffff;verticalAlign=middle;strokeWidth=2;strokeColor=#0080F0;shadow=0;dashed=0;shape=mxgraph.ios7.icons.settings;labelPosition=right;" vertex="1" parent="0UxCvQG6T92VqQAPfvvK-54">
          <mxGeometry x="13" y="15" width="30" height="30" as="geometry" />
        </mxCell>
        <mxCell id="0UxCvQG6T92VqQAPfvvK-57" value="" style="group" vertex="1" connectable="0" parent="0UxCvQG6T92VqQAPfvvK-52">
          <mxGeometry x="13" y="101" width="201" height="60" as="geometry" />
        </mxCell>
        <mxCell id="0UxCvQG6T92VqQAPfvvK-58" value="" style="rounded=1;whiteSpace=wrap;html=1;align=right;" vertex="1" parent="0UxCvQG6T92VqQAPfvvK-57">
          <mxGeometry width="201" height="60" as="geometry" />
        </mxCell>
        <mxCell id="0UxCvQG6T92VqQAPfvvK-59" value="Audit Trail Services" style="html=1;verticalLabelPosition=middle;align=left;labelBackgroundColor=#ffffff;verticalAlign=middle;strokeWidth=2;strokeColor=#0080F0;shadow=0;dashed=0;shape=mxgraph.ios7.icons.settings;labelPosition=right;" vertex="1" parent="0UxCvQG6T92VqQAPfvvK-57">
          <mxGeometry x="13" y="15" width="30" height="30" as="geometry" />
        </mxCell>
        <mxCell id="0UxCvQG6T92VqQAPfvvK-80" value="" style="group" vertex="1" connectable="0" parent="0UxCvQG6T92VqQAPfvvK-138">
          <mxGeometry x="258" y="291" width="231" height="245" as="geometry" />
        </mxCell>
        <mxCell id="0UxCvQG6T92VqQAPfvvK-81" value="Domain SFTP Services" style="rounded=1;whiteSpace=wrap;html=1;verticalAlign=top;fontStyle=1;dashed=1;strokeColor=#0000FF;" vertex="1" parent="0UxCvQG6T92VqQAPfvvK-80">
          <mxGeometry width="231" height="245" as="geometry" />
        </mxCell>
        <mxCell id="0UxCvQG6T92VqQAPfvvK-82" value="" style="group" vertex="1" connectable="0" parent="0UxCvQG6T92VqQAPfvvK-80">
          <mxGeometry x="13" y="35" width="202" height="60" as="geometry" />
        </mxCell>
        <mxCell id="0UxCvQG6T92VqQAPfvvK-83" value="" style="rounded=1;whiteSpace=wrap;html=1;align=right;" vertex="1" parent="0UxCvQG6T92VqQAPfvvK-82">
          <mxGeometry width="202" height="60" as="geometry" />
        </mxCell>
        <mxCell id="0UxCvQG6T92VqQAPfvvK-84" value="SFTP Configuration Service" style="html=1;verticalLabelPosition=middle;align=left;labelBackgroundColor=#ffffff;verticalAlign=middle;strokeWidth=2;strokeColor=#0080F0;shadow=0;dashed=0;shape=mxgraph.ios7.icons.settings;labelPosition=right;" vertex="1" parent="0UxCvQG6T92VqQAPfvvK-82">
          <mxGeometry x="13" y="15" width="30" height="30" as="geometry" />
        </mxCell>
        <mxCell id="0UxCvQG6T92VqQAPfvvK-85" value="" style="group" vertex="1" connectable="0" parent="0UxCvQG6T92VqQAPfvvK-80">
          <mxGeometry x="13" y="101" width="201" height="60" as="geometry" />
        </mxCell>
        <mxCell id="0UxCvQG6T92VqQAPfvvK-86" value="" style="rounded=1;whiteSpace=wrap;html=1;align=right;" vertex="1" parent="0UxCvQG6T92VqQAPfvvK-85">
          <mxGeometry width="201" height="60" as="geometry" />
        </mxCell>
        <mxCell id="0UxCvQG6T92VqQAPfvvK-87" value="SFTP Transaction Services" style="html=1;verticalLabelPosition=middle;align=left;labelBackgroundColor=#ffffff;verticalAlign=middle;strokeWidth=2;strokeColor=#0080F0;shadow=0;dashed=0;shape=mxgraph.ios7.icons.settings;labelPosition=right;" vertex="1" parent="0UxCvQG6T92VqQAPfvvK-85">
          <mxGeometry x="13" y="15" width="30" height="30" as="geometry" />
        </mxCell>
        <mxCell id="0UxCvQG6T92VqQAPfvvK-106" value="" style="group" vertex="1" connectable="0" parent="0UxCvQG6T92VqQAPfvvK-138">
          <mxGeometry x="504" y="291" width="231" height="318" as="geometry" />
        </mxCell>
        <mxCell id="0UxCvQG6T92VqQAPfvvK-90" value="Domain Common Module Services" style="rounded=1;whiteSpace=wrap;html=1;verticalAlign=top;fontStyle=1;dashed=1;strokeColor=#0000FF;" vertex="1" parent="0UxCvQG6T92VqQAPfvvK-106">
          <mxGeometry width="231" height="318" as="geometry" />
        </mxCell>
        <mxCell id="0UxCvQG6T92VqQAPfvvK-91" value="" style="group" vertex="1" connectable="0" parent="0UxCvQG6T92VqQAPfvvK-106">
          <mxGeometry x="13" y="35" width="202" height="60" as="geometry" />
        </mxCell>
        <mxCell id="0UxCvQG6T92VqQAPfvvK-92" value="" style="rounded=1;whiteSpace=wrap;html=1;align=right;" vertex="1" parent="0UxCvQG6T92VqQAPfvvK-91">
          <mxGeometry width="202" height="60" as="geometry" />
        </mxCell>
        <mxCell id="0UxCvQG6T92VqQAPfvvK-93" value="PU Configuration Service" style="html=1;verticalLabelPosition=middle;align=left;labelBackgroundColor=#ffffff;verticalAlign=middle;strokeWidth=2;strokeColor=#0080F0;shadow=0;dashed=0;shape=mxgraph.ios7.icons.settings;labelPosition=right;" vertex="1" parent="0UxCvQG6T92VqQAPfvvK-91">
          <mxGeometry x="13" y="15" width="30" height="30" as="geometry" />
        </mxCell>
        <mxCell id="0UxCvQG6T92VqQAPfvvK-94" value="" style="group" vertex="1" connectable="0" parent="0UxCvQG6T92VqQAPfvvK-106">
          <mxGeometry x="13" y="101" width="201" height="60" as="geometry" />
        </mxCell>
        <mxCell id="0UxCvQG6T92VqQAPfvvK-95" value="" style="rounded=1;whiteSpace=wrap;html=1;align=right;" vertex="1" parent="0UxCvQG6T92VqQAPfvvK-94">
          <mxGeometry width="201" height="60" as="geometry" />
        </mxCell>
        <mxCell id="0UxCvQG6T92VqQAPfvvK-96" value="PU Master Data Services" style="html=1;verticalLabelPosition=middle;align=left;labelBackgroundColor=#ffffff;verticalAlign=middle;strokeWidth=2;strokeColor=#0080F0;shadow=0;dashed=0;shape=mxgraph.ios7.icons.settings;labelPosition=right;" vertex="1" parent="0UxCvQG6T92VqQAPfvvK-94">
          <mxGeometry x="13" y="15" width="30" height="30" as="geometry" />
        </mxCell>
        <mxCell id="0UxCvQG6T92VqQAPfvvK-97" value="" style="group" vertex="1" connectable="0" parent="0UxCvQG6T92VqQAPfvvK-106">
          <mxGeometry x="12" y="167" width="201" height="60" as="geometry" />
        </mxCell>
        <mxCell id="0UxCvQG6T92VqQAPfvvK-98" value="" style="rounded=1;whiteSpace=wrap;html=1;align=right;" vertex="1" parent="0UxCvQG6T92VqQAPfvvK-97">
          <mxGeometry width="201" height="60" as="geometry" />
        </mxCell>
        <mxCell id="0UxCvQG6T92VqQAPfvvK-99" value="PU Approval Services" style="html=1;verticalLabelPosition=middle;align=left;labelBackgroundColor=#ffffff;verticalAlign=middle;strokeWidth=2;strokeColor=#0080F0;shadow=0;dashed=0;shape=mxgraph.ios7.icons.settings;labelPosition=right;" vertex="1" parent="0UxCvQG6T92VqQAPfvvK-97">
          <mxGeometry x="13" y="15" width="30" height="30" as="geometry" />
        </mxCell>
        <mxCell id="0UxCvQG6T92VqQAPfvvK-100" value="" style="group" vertex="1" connectable="0" parent="0UxCvQG6T92VqQAPfvvK-106">
          <mxGeometry x="13" y="234" width="201" height="60" as="geometry" />
        </mxCell>
        <mxCell id="0UxCvQG6T92VqQAPfvvK-101" value="" style="rounded=1;whiteSpace=wrap;html=1;align=right;" vertex="1" parent="0UxCvQG6T92VqQAPfvvK-100">
          <mxGeometry width="201" height="60" as="geometry" />
        </mxCell>
        <mxCell id="0UxCvQG6T92VqQAPfvvK-102" value="PU Dashboard Services" style="html=1;verticalLabelPosition=middle;align=left;labelBackgroundColor=#ffffff;verticalAlign=middle;strokeWidth=2;strokeColor=#0080F0;shadow=0;dashed=0;shape=mxgraph.ios7.icons.settings;labelPosition=right;" vertex="1" parent="0UxCvQG6T92VqQAPfvvK-100">
          <mxGeometry x="13" y="15" width="30" height="30" as="geometry" />
        </mxCell>
        <mxCell id="0UxCvQG6T92VqQAPfvvK-107" value="" style="group" vertex="1" connectable="0" parent="0UxCvQG6T92VqQAPfvvK-138">
          <mxGeometry y="291" width="240" height="306" as="geometry" />
        </mxCell>
        <mxCell id="0UxCvQG6T92VqQAPfvvK-64" value="Domain Collection Services" style="rounded=1;whiteSpace=wrap;html=1;verticalAlign=top;fontStyle=1;dashed=1;strokeColor=#0000FF;" vertex="1" parent="0UxCvQG6T92VqQAPfvvK-107">
          <mxGeometry width="240" height="306" as="geometry" />
        </mxCell>
        <mxCell id="0UxCvQG6T92VqQAPfvvK-66" value="" style="rounded=1;whiteSpace=wrap;html=1;align=right;" vertex="1" parent="0UxCvQG6T92VqQAPfvvK-107">
          <mxGeometry x="13" y="35" width="213" height="60" as="geometry" />
        </mxCell>
        <mxCell id="0UxCvQG6T92VqQAPfvvK-67" value="Customer Registration Service" style="html=1;verticalLabelPosition=middle;align=left;labelBackgroundColor=#ffffff;verticalAlign=middle;strokeWidth=2;strokeColor=#0080F0;shadow=0;dashed=0;shape=mxgraph.ios7.icons.settings;labelPosition=right;" vertex="1" parent="0UxCvQG6T92VqQAPfvvK-107">
          <mxGeometry x="26" y="50" width="30" height="30" as="geometry" />
        </mxCell>
        <mxCell id="0UxCvQG6T92VqQAPfvvK-69" value="" style="rounded=1;whiteSpace=wrap;html=1;align=right;" vertex="1" parent="0UxCvQG6T92VqQAPfvvK-107">
          <mxGeometry x="13" y="101" width="212" height="60" as="geometry" />
        </mxCell>
        <mxCell id="0UxCvQG6T92VqQAPfvvK-70" value="Download Collection Service" style="html=1;verticalLabelPosition=middle;align=left;labelBackgroundColor=#ffffff;verticalAlign=middle;strokeWidth=2;strokeColor=#0080F0;shadow=0;dashed=0;shape=mxgraph.ios7.icons.settings;labelPosition=right;" vertex="1" parent="0UxCvQG6T92VqQAPfvvK-107">
          <mxGeometry x="26" y="116" width="30" height="30" as="geometry" />
        </mxCell>
        <mxCell id="0UxCvQG6T92VqQAPfvvK-72" value="" style="rounded=1;whiteSpace=wrap;html=1;align=right;" vertex="1" parent="0UxCvQG6T92VqQAPfvvK-107">
          <mxGeometry x="13" y="166" width="212" height="60" as="geometry" />
        </mxCell>
        <mxCell id="0UxCvQG6T92VqQAPfvvK-73" value="Upload Collection Service" style="html=1;verticalLabelPosition=middle;align=left;labelBackgroundColor=#ffffff;verticalAlign=middle;strokeWidth=2;strokeColor=#0080F0;shadow=0;dashed=0;shape=mxgraph.ios7.icons.settings;labelPosition=right;" vertex="1" parent="0UxCvQG6T92VqQAPfvvK-107">
          <mxGeometry x="26" y="181" width="30" height="30" as="geometry" />
        </mxCell>
        <mxCell id="0UxCvQG6T92VqQAPfvvK-79" value="" style="group" vertex="1" connectable="0" parent="0UxCvQG6T92VqQAPfvvK-107">
          <mxGeometry x="13" y="231" width="212" height="60" as="geometry" />
        </mxCell>
        <mxCell id="0UxCvQG6T92VqQAPfvvK-77" value="" style="rounded=1;whiteSpace=wrap;html=1;align=right;" vertex="1" parent="0UxCvQG6T92VqQAPfvvK-79">
          <mxGeometry width="212" height="60" as="geometry" />
        </mxCell>
        <mxCell id="0UxCvQG6T92VqQAPfvvK-78" value="Re-send Collection Service" style="html=1;verticalLabelPosition=middle;align=left;labelBackgroundColor=#ffffff;verticalAlign=middle;strokeWidth=2;strokeColor=#0080F0;shadow=0;dashed=0;shape=mxgraph.ios7.icons.settings;labelPosition=right;" vertex="1" parent="0UxCvQG6T92VqQAPfvvK-79">
          <mxGeometry x="13" y="15" width="30" height="30" as="geometry" />
        </mxCell>
        <mxCell id="0UxCvQG6T92VqQAPfvvK-136" value="" style="group" vertex="1" connectable="0" parent="0UxCvQG6T92VqQAPfvvK-138">
          <mxGeometry x="748" y="291" width="257" height="320" as="geometry" />
        </mxCell>
        <mxCell id="0UxCvQG6T92VqQAPfvvK-109" value="Domain Nostro Services" style="rounded=1;whiteSpace=wrap;html=1;verticalAlign=top;fontStyle=1;dashed=1;strokeColor=#0000FF;" vertex="1" parent="0UxCvQG6T92VqQAPfvvK-136">
          <mxGeometry width="257" height="320" as="geometry" />
        </mxCell>
        <mxCell id="0UxCvQG6T92VqQAPfvvK-130" value="" style="group" vertex="1" connectable="0" parent="0UxCvQG6T92VqQAPfvvK-136">
          <mxGeometry x="13" y="166" width="227" height="60" as="geometry" />
        </mxCell>
        <mxCell id="0UxCvQG6T92VqQAPfvvK-128" value="" style="rounded=1;whiteSpace=wrap;html=1;align=right;" vertex="1" parent="0UxCvQG6T92VqQAPfvvK-130">
          <mxGeometry width="227" height="60" as="geometry" />
        </mxCell>
        <mxCell id="0UxCvQG6T92VqQAPfvvK-129" value="Repair Credit Cust ACC Services" style="html=1;verticalLabelPosition=middle;align=left;labelBackgroundColor=#ffffff;verticalAlign=middle;strokeWidth=2;strokeColor=#0080F0;shadow=0;dashed=0;shape=mxgraph.ios7.icons.settings;labelPosition=right;" vertex="1" parent="0UxCvQG6T92VqQAPfvvK-130">
          <mxGeometry x="13" y="15" width="30" height="30" as="geometry" />
        </mxCell>
        <mxCell id="0UxCvQG6T92VqQAPfvvK-114" value="" style="rounded=1;whiteSpace=wrap;html=1;align=right;" vertex="1" parent="0UxCvQG6T92VqQAPfvvK-136">
          <mxGeometry x="13" y="101" width="228" height="60" as="geometry" />
        </mxCell>
        <mxCell id="0UxCvQG6T92VqQAPfvvK-115" value="Nostro Transaction Services" style="html=1;verticalLabelPosition=middle;align=left;labelBackgroundColor=#ffffff;verticalAlign=middle;strokeWidth=2;strokeColor=#0080F0;shadow=0;dashed=0;shape=mxgraph.ios7.icons.settings;labelPosition=right;" vertex="1" parent="0UxCvQG6T92VqQAPfvvK-136">
          <mxGeometry x="26" y="116" width="30" height="30" as="geometry" />
        </mxCell>
        <mxCell id="0UxCvQG6T92VqQAPfvvK-111" value="" style="rounded=1;whiteSpace=wrap;html=1;align=right;" vertex="1" parent="0UxCvQG6T92VqQAPfvvK-136">
          <mxGeometry x="13" y="35" width="230" height="60" as="geometry" />
        </mxCell>
        <mxCell id="0UxCvQG6T92VqQAPfvvK-112" value="Nostro Configuration Service" style="html=1;verticalLabelPosition=middle;align=left;labelBackgroundColor=#ffffff;verticalAlign=middle;strokeWidth=2;strokeColor=#0080F0;shadow=0;dashed=0;shape=mxgraph.ios7.icons.settings;labelPosition=right;" vertex="1" parent="0UxCvQG6T92VqQAPfvvK-136">
          <mxGeometry x="26" y="50" width="30" height="30" as="geometry" />
        </mxCell>
        <mxCell id="0UxCvQG6T92VqQAPfvvK-131" value="" style="group" vertex="1" connectable="0" parent="0UxCvQG6T92VqQAPfvvK-136">
          <mxGeometry x="13" y="234" width="227" height="60" as="geometry" />
        </mxCell>
        <mxCell id="0UxCvQG6T92VqQAPfvvK-132" value="" style="rounded=1;whiteSpace=wrap;html=1;align=right;" vertex="1" parent="0UxCvQG6T92VqQAPfvvK-131">
          <mxGeometry width="227" height="60" as="geometry" />
        </mxCell>
        <mxCell id="0UxCvQG6T92VqQAPfvvK-133" value="Nostro Reporting Services" style="html=1;verticalLabelPosition=middle;align=left;labelBackgroundColor=#ffffff;verticalAlign=middle;strokeWidth=2;strokeColor=#0080F0;shadow=0;dashed=0;shape=mxgraph.ios7.icons.settings;labelPosition=right;" vertex="1" parent="0UxCvQG6T92VqQAPfvvK-131">
          <mxGeometry x="13" y="15" width="30" height="30" as="geometry" />
        </mxCell>
        <mxCell id="0UxCvQG6T92VqQAPfvvK-150" value="PU Payment DB" style="shape=cylinder3;whiteSpace=wrap;html=1;boundedLbl=1;backgroundOutline=1;size=15;" vertex="1" parent="1">
          <mxGeometry x="-376.99893805309733" y="1334" width="105.13274336283187" height="128.4304932735426" as="geometry" />
        </mxCell>
        <mxCell id="0UxCvQG6T92VqQAPfvvK-151" value="PU Reporting DB" style="shape=cylinder3;whiteSpace=wrap;html=1;boundedLbl=1;backgroundOutline=1;size=15;" vertex="1" parent="1">
          <mxGeometry x="-151.00353982300882" y="1334.0022869955155" width="105.13274336283187" height="128.4304932735426" as="geometry" />
        </mxCell>
        <mxCell id="0UxCvQG6T92VqQAPfvvK-152" value="PU Emil DB" style="shape=cylinder3;whiteSpace=wrap;html=1;boundedLbl=1;backgroundOutline=1;size=15;" vertex="1" parent="1">
          <mxGeometry x="74.99619469026557" y="1341.9984304932734" width="105.13274336283187" height="128.4304932735426" as="geometry" />
        </mxCell>
        <mxCell id="0UxCvQG6T92VqQAPfvvK-153" value="PU Audit Log DB" style="shape=cylinder3;whiteSpace=wrap;html=1;boundedLbl=1;backgroundOutline=1;size=15;" vertex="1" parent="1">
          <mxGeometry x="301.8672566371682" y="1337.8968609865472" width="105.13274336283187" height="128.4304932735426" as="geometry" />
        </mxCell>
        <mxCell id="0UxCvQG6T92VqQAPfvvK-154" value="PU Collection DB" style="shape=cylinder3;whiteSpace=wrap;html=1;boundedLbl=1;backgroundOutline=1;size=15;" vertex="1" parent="1">
          <mxGeometry x="-377" y="1532.0033632286995" width="105.13274336283187" height="128.4304932735426" as="geometry" />
        </mxCell>
        <mxCell id="0UxCvQG6T92VqQAPfvvK-155" value="PU SFTP DB" style="shape=cylinder3;whiteSpace=wrap;html=1;boundedLbl=1;backgroundOutline=1;size=15;" vertex="1" parent="1">
          <mxGeometry x="-151.00690265486722" y="1532.0041704035875" width="105.13274336283187" height="128.4304932735426" as="geometry" />
        </mxCell>
        <mxCell id="0UxCvQG6T92VqQAPfvvK-156" value="PU DB" style="shape=cylinder3;whiteSpace=wrap;html=1;boundedLbl=1;backgroundOutline=1;size=15;" vertex="1" parent="1">
          <mxGeometry x="74.99734513274339" y="1540.0033632286995" width="105.13274336283187" height="128.4304932735426" as="geometry" />
        </mxCell>
        <mxCell id="0UxCvQG6T92VqQAPfvvK-157" value="PU Nostro DB" style="shape=cylinder3;whiteSpace=wrap;html=1;boundedLbl=1;backgroundOutline=1;size=15;" vertex="1" parent="1">
          <mxGeometry x="301.8684070796461" y="1539.9995067264574" width="105.13274336283187" height="128.4304932735426" as="geometry" />
        </mxCell>
        <mxCell id="0UxCvQG6T92VqQAPfvvK-166" value="" style="rounded=0;whiteSpace=wrap;html=1;dashed=1;" vertex="1" parent="1">
          <mxGeometry x="-215" y="1186" width="206" height="74" as="geometry" />
        </mxCell>
        <mxCell id="0UxCvQG6T92VqQAPfvvK-164" value="Redis Mem Cache" style="shape=image;verticalLabelPosition=middle;labelBackgroundColor=#ffffff;verticalAlign=middle;aspect=fixed;imageAspect=0;image=data:image/svg+xml,PHN2ZyB4bWxuczpjYz0iaHR0cDovL2NyZWF0aXZlY29tbW9ucy5vcmcvbnMjIiB4bWxuczpkYz0iaHR0cDovL3B1cmwub3JnL2RjL2VsZW1lbnRzLzEuMS8iIHhtbG5zOmlua3NjYXBlPSJodHRwOi8vd3d3Lmlua3NjYXBlLm9yZy9uYW1lc3BhY2VzL2lua3NjYXBlIiB4bWxuczpyZGY9Imh0dHA6Ly93d3cudzMub3JnLzE5OTkvMDIvMjItcmRmLXN5bnRheC1ucyMiIHhtbG5zOnNvZGlwb2RpPSJodHRwOi8vc29kaXBvZGkuc291cmNlZm9yZ2UubmV0L0RURC9zb2RpcG9kaS0wLmR0ZCIgeG1sbnM6c3ZnPSJodHRwOi8vd3d3LnczLm9yZy8yMDAwL3N2ZyIgeG1sbnM9Imh0dHA6Ly93d3cudzMub3JnLzIwMDAvc3ZnIiB4bWxuczp4bGluaz0iaHR0cDovL3d3dy53My5vcmcvMTk5OS94bGluayIgdmVyc2lvbj0iMS4xIiBpZD0ic3ZnMTAzNDc0IiBpbmtzY2FwZTp2ZXJzaW9uPSIwLjkyLjMgKDI0MDU1NDYsIDIwMTgtMDMtMTEpIiBzb2RpcG9kaTpkb2NuYW1lPSJyZWRpcy5zdmciIHg9IjBweCIgeT0iMHB4IiB2aWV3Qm94PSIwIDAgMzcuNTEgMzEuNiIgc3R5bGU9ImVuYWJsZS1iYWNrZ3JvdW5kOm5ldyAwIDAgMzcuNTEgMzEuNjsiIHhtbDpzcGFjZT0icHJlc2VydmUiPiYjeGE7PHNvZGlwb2RpOm5hbWVkdmlldyBib3JkZXJjb2xvcj0iIzY2NjY2NiIgYm9yZGVyb3BhY2l0eT0iMSIgZml0LW1hcmdpbi1ib3R0b209IjAiIGZpdC1tYXJnaW4tbGVmdD0iMCIgZml0LW1hcmdpbi1yaWdodD0iMCIgZml0LW1hcmdpbi10b3A9IjAiIGdyaWR0b2xlcmFuY2U9IjEwIiBndWlkZXRvbGVyYW5jZT0iMTAiIGlkPSJuYW1lZHZpZXcxMDM0NzYiIGlua3NjYXBlOmN1cnJlbnQtbGF5ZXI9InN2ZzEwMzQ3NCIgaW5rc2NhcGU6Y3g9IjI1LjAwNTA2MyIgaW5rc2NhcGU6Y3k9IjIxLjA2NDU5MiIgaW5rc2NhcGU6cGFnZW9wYWNpdHk9IjAiIGlua3NjYXBlOnBhZ2VzaGFkb3c9IjIiIGlua3NjYXBlOndpbmRvdy1oZWlnaHQ9IjEwMTciIGlua3NjYXBlOndpbmRvdy1tYXhpbWl6ZWQ9IjEiIGlua3NjYXBlOndpbmRvdy13aWR0aD0iMTkyMCIgaW5rc2NhcGU6d2luZG93LXg9Ii04IiBpbmtzY2FwZTp3aW5kb3cteT0iLTgiIGlua3NjYXBlOnpvb209IjE5LjY0MjUwNCIgb2JqZWN0dG9sZXJhbmNlPSIxMCIgcGFnZWNvbG9yPSIjZmZmZmZmIiBzaG93Z3JpZD0iZmFsc2UiPiYjeGE7CTwvc29kaXBvZGk6bmFtZWR2aWV3PiYjeGE7PGcgaWQ9ImcxMDM0NzIiIHRyYW5zZm9ybT0idHJhbnNsYXRlKC0wLjc0NjgyNzEsLTAuNzUxNjI1KSI+JiN4YTsJPHRpdGxlIGlkPSJ0aXRsZTEwMzM4OCI+UGFnZS0xPC90aXRsZT4mI3hhOwk8ZyBpZD0iZ3JvdXAzNzc2LTEiIHRyYW5zZm9ybT0idHJhbnNsYXRlKDAuNDA3MjksLTAuNjA5Mzc1KSI+JiN4YTsJCTx0aXRsZSBpZD0idGl0bGUxMDMzOTAiPlJlZGlzLjYzNjwvdGl0bGU+JiN4YTsJCTxnIGlkPSJncm91cDM3NzctMiI+JiN4YTsJCQk8dGl0bGUgaWQ9InRpdGxlMTAzMzkyIj5TaGVldC4zNzc3PC90aXRsZT4mI3hhOwkJCTxnIGlkPSJzaGFwZTM3NzgtMyIgdHJhbnNmb3JtPSJ0cmFuc2xhdGUoMC4yMzcpIj4mI3hhOwkJCQk8dGl0bGUgaWQ9InRpdGxlMTAzMzk0Ij5TaGVldC4zNzc4PC90aXRsZT4mI3hhOwkJCQk8cGF0aCBpZD0icGF0aDEwMzM5NiIgaW5rc2NhcGU6Y29ubmVjdG9yLWN1cnZhdHVyZT0iMCIgc3R5bGU9ImZpbGw6I0JBMTQxQTsiIGQ9Ik0wLjExLDI1LjE5Yy0wLjA2LDAuNCwwLjI4LDAuOCwxLjAyLDEuMTEgICAgICBsMTUuMjQsNi4yNGMxLjM3LDAuNTYsMy42LDAuNTYsNC45NywwbDE1LjI0LTYuMjRjMC43NC0wLjMxLDEuMDgtMC43MSwxLjAyLTEuMTF2LTMuNThjMC4wNSwwLjM5LTAuMjksMC43OS0xLjAyLDEuMDkgICAgICBsLTE1LjI0LDYuMjRjLTEuMzcsMC41Ni0zLjYsMC41Ni00Ljk3LDBMMS4xMywyMi43Yy0wLjgtMC4zMy0xLjEzLTAuNzgtMS0xLjJMMC4xMSwyNS4xOXoiLz4mI3hhOwkJCTwvZz4mI3hhOwkJCTxnIGlkPSJzaGFwZTM3NzktNSIgdHJhbnNmb3JtPSJ0cmFuc2xhdGUoMCwtMy42KSI+JiN4YTsJCQkJPHRpdGxlIGlkPSJ0aXRsZTEwMzM5OSI+U2hlZXQuMzc3OTwvdGl0bGU+JiN4YTsJCQkJPHBhdGggaWQ9InBhdGgxMDM0MDEiIGlua3NjYXBlOmNvbm5lY3Rvci1jdXJ2YXR1cmU9IjAiIHN0eWxlPSJmaWxsOiNCQTE0MUE7IiBkPSJNMzYuODEsMjQuMjZjMS4zOCwwLjU3LDEuMzgsMS40OCwwLDIuMDQgICAgICBsLTE1LjIzLDYuMjRjLTEuMzcsMC41Ni0zLjYsMC41Ni00Ljk3LDBMMS4zNywyNi4zQzAsMjUuNzQsMCwyNC44MywxLjM3LDI0LjI2bDE1LjI0LTYuMjRjMS4zNy0wLjU2LDMuNi0wLjU2LDQuOTcsMCAgICAgIEwzNi44MSwyNC4yNnoiLz4mI3hhOwkJCTwvZz4mI3hhOwkJPC9nPiYjeGE7CQk8ZyBpZD0iZ3JvdXAzNzgwLTciIHRyYW5zZm9ybT0idHJhbnNsYXRlKDAsLTYuMzE5NSkiPiYjeGE7CQkJPHRpdGxlIGlkPSJ0aXRsZTEwMzQwNSI+U2hlZXQuMzc4MDwvdGl0bGU+JiN4YTsJCQk8ZyBpZD0ic2hhcGUzNzgxLTgiIHRyYW5zZm9ybT0idHJhbnNsYXRlKDAuMjM3KSI+JiN4YTsJCQkJPHRpdGxlIGlkPSJ0aXRsZTEwMzQwNyI+U2hlZXQuMzc4MTwvdGl0bGU+JiN4YTsJCQkJPHBhdGggaWQ9InBhdGgxMDM0MDkiIGlua3NjYXBlOmNvbm5lY3Rvci1jdXJ2YXR1cmU9IjAiIHN0eWxlPSJmaWxsOiNCQTE0MUE7IiBkPSJNMC4xMSwyNS4xOWMtMC4wNiwwLjQsMC4yOCwwLjgsMS4wMiwxLjExICAgICAgbDE1LjI0LDYuMjRjMS4zNywwLjU2LDMuNiwwLjU2LDQuOTcsMGwxNS4yNC02LjI0YzAuNzQtMC4zMSwxLjA4LTAuNzEsMS4wMi0xLjExdi0zLjU4YzAuMDUsMC4zOS0wLjI5LDAuNzktMS4wMiwxLjA5ICAgICAgbC0xNS4yNCw2LjI0Yy0xLjM3LDAuNTYtMy42LDAuNTYtNC45NywwTDEuMTMsMjIuN2MtMC44LTAuMzMtMS4xMy0wLjc4LTEtMS4yTDAuMTEsMjUuMTl6Ii8+JiN4YTsJCQk8L2c+JiN4YTsJCQk8ZyBpZD0ic2hhcGUzNzgyLTEwIiB0cmFuc2Zvcm09InRyYW5zbGF0ZSgwLC0zLjYpIj4mI3hhOwkJCQk8dGl0bGUgaWQ9InRpdGxlMTAzNDEyIj5TaGVldC4zNzgyPC90aXRsZT4mI3hhOwkJCQk8cGF0aCBpZD0icGF0aDEwMzQxNCIgaW5rc2NhcGU6Y29ubmVjdG9yLWN1cnZhdHVyZT0iMCIgc3R5bGU9ImZpbGw6I0JBMTQxQTsiIGQ9Ik0zNi44MSwyNC4yNmMxLjM4LDAuNTcsMS4zOCwxLjQ4LDAsMi4wNCAgICAgIGwtMTUuMjMsNi4yNGMtMS4zNywwLjU2LTMuNiwwLjU2LTQuOTcsMEwxLjM3LDI2LjNDMCwyNS43NCwwLDI0LjgzLDEuMzcsMjQuMjZsMTUuMjQtNi4yNGMxLjM3LTAuNTYsMy42LTAuNTYsNC45NywwICAgICAgTDM2LjgxLDI0LjI2eiIvPiYjeGE7CQkJPC9nPiYjeGE7CQk8L2c+JiN4YTsJCTxnIGlkPSJncm91cDM3ODMtMTIiPiYjeGE7CQkJPHRpdGxlIGlkPSJ0aXRsZTEwMzQxOCI+U2hlZXQuMzc4MzwvdGl0bGU+JiN4YTsJCQk8ZyBpZD0ic2hhcGUzNzg0LTEzIiB0cmFuc2Zvcm09InRyYW5zbGF0ZSgwLjIzNywtMTIuNjM5KSI+JiN4YTsJCQkJPHRpdGxlIGlkPSJ0aXRsZTEwMzQyMCI+U2hlZXQuMzc4NDwvdGl0bGU+JiN4YTsJCQkJPHBhdGggaWQ9InBhdGgxMDM0MjIiIGlua3NjYXBlOmNvbm5lY3Rvci1jdXJ2YXR1cmU9IjAiIHN0eWxlPSJmaWxsOiNCQTE0MUE7IiBkPSJNMC4xMSwyNS4xOWMtMC4wNiwwLjQsMC4yOCwwLjgsMS4wMiwxLjExICAgICAgbDE1LjI0LDYuMjRjMS4zNywwLjU2LDMuNiwwLjU2LDQuOTcsMGwxNS4yNC02LjI0YzAuNzQtMC4zMSwxLjA4LTAuNzEsMS4wMi0xLjExdi0zLjU4YzAuMDUsMC4zOS0wLjI5LDAuNzktMS4wMiwxLjA5ICAgICAgbC0xNS4yNCw2LjI0Yy0xLjM3LDAuNTYtMy42LDAuNTYtNC45NywwTDEuMTMsMjIuN2MtMC44LTAuMzMtMS4xMy0wLjc4LTEtMS4yTDAuMTEsMjUuMTl6Ii8+JiN4YTsJCQk8L2c+JiN4YTsJCQk8ZyBpZD0ic2hhcGUzNzg1LTE1IiB0cmFuc2Zvcm09InRyYW5zbGF0ZSgwLjIzNykiPiYjeGE7CQkJCTx0aXRsZSBpZD0idGl0bGUxMDM0MjUiPlNoZWV0LjM3ODU8L3RpdGxlPiYjeGE7CQkJCTxwYXRoIGlkPSJwYXRoMTAzNDI3IiBpbmtzY2FwZTpjb25uZWN0b3ItY3VydmF0dXJlPSIwIiBzdHlsZT0iZmlsbDojMUUxRTFFO2ZpbGwtb3BhY2l0eTowLjI1OyIgZD0iTTAuMTEsMjUuMTkgICAgICBjLTAuMDYsMC40LDAuMjgsMC44LDEuMDIsMS4xMWwxNS4yNCw2LjI0YzEuMzcsMC41NiwzLjYsMC41Niw0Ljk3LDBsMTUuMjQtNi4yNGMwLjc0LTAuMzEsMS4wOC0wLjcxLDEuMDItMS4xMXYtMy41OCAgICAgIGMwLjA1LDAuMzktMC4yOSwwLjc5LTEuMDIsMS4wOWwtMTUuMjQsNi4yNGMtMS4zNywwLjU2LTMuNiwwLjU2LTQuOTcsMEwxLjEzLDIyLjdjLTAuOC0wLjMzLTEuMTMtMC43OC0xLTEuMkwwLjExLDI1LjE5eiIvPiYjeGE7CQkJPC9nPiYjeGE7CQkJPGcgaWQ9InNoYXBlMzc4Ni0xNyIgdHJhbnNmb3JtPSJ0cmFuc2xhdGUoMC4yMzcsLTYuMzE5NSkiPiYjeGE7CQkJCTx0aXRsZSBpZD0idGl0bGUxMDM0MzAiPlNoZWV0LjM3ODY8L3RpdGxlPiYjeGE7CQkJCTxwYXRoIGlkPSJwYXRoMTAzNDMyIiBpbmtzY2FwZTpjb25uZWN0b3ItY3VydmF0dXJlPSIwIiBzdHlsZT0iZmlsbDojMUUxRTFFO2ZpbGwtb3BhY2l0eTowLjI1OyIgZD0iTTAuMTEsMjUuMTkgICAgICBjLTAuMDYsMC40LDAuMjgsMC44LDEuMDIsMS4xMWwxNS4yNCw2LjI0YzEuMzcsMC41NiwzLjYsMC41Niw0Ljk3LDBsMTUuMjQtNi4yNGMwLjc0LTAuMzEsMS4wOC0wLjcxLDEuMDItMS4xMXYtMy41OCAgICAgIGMwLjA1LDAuMzktMC4yOSwwLjc5LTEuMDIsMS4wOWwtMTUuMjQsNi4yNGMtMS4zNywwLjU2LTMuNiwwLjU2LTQuOTcsMEwxLjEzLDIyLjdjLTAuOC0wLjMzLTEuMTMtMC43OC0xLTEuMkwwLjExLDI1LjE5eiIvPiYjeGE7CQkJPC9nPiYjeGE7CQkJPGcgaWQ9InNoYXBlMzc4Ny0xOSIgdHJhbnNmb3JtPSJ0cmFuc2xhdGUoMC4yMzcsLTEyLjYzOSkiPiYjeGE7CQkJCTx0aXRsZSBpZD0idGl0bGUxMDM0MzUiPlNoZWV0LjM3ODc8L3RpdGxlPiYjeGE7CQkJCTxwYXRoIGlkPSJwYXRoMTAzNDM3IiBpbmtzY2FwZTpjb25uZWN0b3ItY3VydmF0dXJlPSIwIiBzdHlsZT0iZmlsbDojMUUxRTFFO2ZpbGwtb3BhY2l0eTowLjI1OyIgZD0iTTAuMTEsMjUuMTkgICAgICBjLTAuMDYsMC40LDAuMjgsMC44LDEuMDIsMS4xMWwxNS4yNCw2LjI0YzEuMzcsMC41NiwzLjYsMC41Niw0Ljk3LDBsMTUuMjQtNi4yNGMwLjc0LTAuMzEsMS4wOC0wLjcxLDEuMDItMS4xMXYtMy41OCAgICAgIGMwLjA1LDAuMzktMC4yOSwwLjc5LTEuMDIsMS4wOWwtMTUuMjQsNi4yNGMtMS4zNywwLjU2LTMuNiwwLjU2LTQuOTcsMEwxLjEzLDIyLjdjLTAuOC0wLjMzLTEuMTMtMC43OC0xLTEuMkwwLjExLDI1LjE5eiIvPiYjeGE7CQkJPC9nPiYjeGE7CQkJPGcgaWQ9InNoYXBlMzc4OC0yMSIgdHJhbnNmb3JtPSJ0cmFuc2xhdGUoMCwtMTYuMjM5KSI+JiN4YTsJCQkJPHRpdGxlIGlkPSJ0aXRsZTEwMzQ0MCI+U2hlZXQuMzc4ODwvdGl0bGU+JiN4YTsJCQkJPHBhdGggaWQ9InBhdGgxMDM0NDIiIGlua3NjYXBlOmNvbm5lY3Rvci1jdXJ2YXR1cmU9IjAiIHN0eWxlPSJmaWxsOiNCQTE0MUE7IiBkPSJNMzYuODEsMjQuMjZjMS4zOCwwLjU3LDEuMzgsMS40OCwwLDIuMDQgICAgICBsLTE1LjIzLDYuMjRjLTEuMzcsMC41Ni0zLjYsMC41Ni00Ljk3LDBMMS4zNywyNi4zQzAsMjUuNzQsMCwyNC44MywxLjM3LDI0LjI2bDE1LjI0LTYuMjRjMS4zNy0wLjU2LDMuNi0wLjU2LDQuOTcsMCAgICAgIEwzNi44MSwyNC4yNnoiLz4mI3hhOwkJCTwvZz4mI3hhOwkJPC9nPiYjeGE7CQk8ZyBpZD0ic2hhcGUzNzg5LTIzIiB0cmFuc2Zvcm09InRyYW5zbGF0ZSg2LjM2MTUsLTIyLjExMjMpIj4mI3hhOwkJCTx0aXRsZSBpZD0idGl0bGUxMDM0NDYiPlNoZWV0LjM3ODk8L3RpdGxlPiYjeGE7CQkJPHBhdGggaWQ9InBhdGgxMDM0NDgiIGlua3NjYXBlOmNvbm5lY3Rvci1jdXJ2YXR1cmU9IjAiIHN0eWxlPSJmaWxsOiNGRkZGRkY7IiBkPSJNOC4wNCwzMi4zM2MtMS43NCwwLjc3LTQuNTYsMC43Ny02LjMsMCAgICAgQzAsMzEuNTYsMCwzMC4zLDEuNzQsMjkuNTNjMS43NC0wLjc3LDQuNTYtMC43Nyw2LjMsMEM5Ljc3LDMwLjMsOS43OCwzMS41Niw4LjA0LDMyLjMzeiIvPiYjeGE7CQk8L2c+JiN4YTsJCTxnIGlkPSJzaGFwZTM3OTAtMjUiIHRyYW5zZm9ybT0idHJhbnNsYXRlKDEzLjIxOCwtMTcuOTg4KSI+JiN4YTsJCQk8dGl0bGUgaWQ9InRpdGxlMTAzNDUxIj5TaGVldC4zNzkwPC90aXRsZT4mI3hhOwkJCTxwYXRoIGlkPSJwYXRoMTAzNDUzIiBpbmtzY2FwZTpjb25uZWN0b3ItY3VydmF0dXJlPSIwIiBzdHlsZT0iZmlsbDojRkZGRkZGOyIgZD0iTTAsMzAuMmw4LjkyLTEuMDZMNi41MywzMy4xTDAsMzAuMnoiLz4mI3hhOwkJPC9nPiYjeGE7CQk8ZyBpZD0ic2hhcGUzNzkxLTI3IiB0cmFuc2Zvcm09InRyYW5zbGF0ZSgyMS44NjQsLTIxLjg5MSkiPiYjeGE7CQkJPHRpdGxlIGlkPSJ0aXRsZTEwMzQ1NiI+U2hlZXQuMzc5MTwvdGl0bGU+JiN4YTsJCQk8cGF0aCBpZD0icGF0aDEwMzQ1OCIgaW5rc2NhcGU6Y29ubmVjdG9yLWN1cnZhdHVyZT0iMCIgc3R5bGU9ImZpbGw6IzFFMUUxRTtmaWxsLW9wYWNpdHk6MC4yNTsiIGQ9Ik01LjM0LDMzLjFMMCwzMC43MyAgICAgbDUuMzQtMi4zN2w1LjMzLDIuMzdMNS4zNCwzMy4xeiIvPiYjeGE7CQk8L2c+JiN4YTsJCTxnIGlkPSJzaGFwZTM3OTItMjkiIHRyYW5zZm9ybT0idHJhbnNsYXRlKDIxLjg2NCwtMjEuODkxKSI+JiN4YTsJCQk8dGl0bGUgaWQ9InRpdGxlMTAzNDYxIj5TaGVldC4zNzkyPC90aXRsZT4mI3hhOwkJCTxwYXRoIGlkPSJwYXRoMTAzNDYzIiBpbmtzY2FwZTpjb25uZWN0b3ItY3VydmF0dXJlPSIwIiBzdHlsZT0iZmlsbDojMUUxRTFFO2ZpbGwtb3BhY2l0eTowLjI1OyIgZD0iTTUuMzQsMzMuMUwwLDMwLjczICAgICBsNS4zNC0yLjM3VjMzLjF6Ii8+JiN4YTsJCTwvZz4mI3hhOwkJPGcgaWQ9InNoYXBlMzc5My0zMSIgdHJhbnNmb3JtPSJ0cmFuc2xhdGUoMTMuODk2NywtMjUuNjE1NSkiPiYjeGE7CQkJPHRpdGxlIGlkPSJ0aXRsZTEwMzQ2NiI+U2hlZXQuMzc5MzwvdGl0bGU+JiN4YTsJCQk8cGF0aCBpZD0icGF0aDEwMzQ2OCIgaW5rc2NhcGU6Y29ubmVjdG9yLWN1cnZhdHVyZT0iMCIgc3R5bGU9ImZpbGw6I0ZGRkZGRjsiIGQ9Ik0zLjQ4LDMxLjU1TDAsMzEuMjRsMy4wOS0wLjc4bC0wLjQtMS41NyAgICAgbDIuNjIsMS4wN2wzLjI0LTAuNjZsLTEuNDgsMS40NGwyLjQxLDEuMTdsLTMuNTQtMC4xOEw0LjE5LDMzLjFMMy40OCwzMS41NXoiLz4mI3hhOwkJPC9nPiYjeGE7CTwvZz4mI3hhOzwvZz4mI3hhOzwvc3ZnPg==;labelPosition=right;align=left;fontStyle=1" vertex="1" parent="1">
          <mxGeometry x="-212" y="1193" width="76" height="64" as="geometry" />
        </mxCell>
        <mxCell id="0UxCvQG6T92VqQAPfvvK-167" value="" style="rounded=0;whiteSpace=wrap;html=1;dashed=1;" vertex="1" parent="1">
          <mxGeometry x="8.5" y="1186" width="206" height="74" as="geometry" />
        </mxCell>
        <mxCell id="0UxCvQG6T92VqQAPfvvK-163" value="Message Broker" style="shape=image;verticalLabelPosition=middle;labelBackgroundColor=#ffffff;verticalAlign=middle;aspect=fixed;imageAspect=0;image=data:image/svg+xml,PHN2ZyB4bWxuczpkYz0iaHR0cDovL3B1cmwub3JnL2RjL2VsZW1lbnRzLzEuMS8iIHhtbG5zOmNjPSJodHRwOi8vY3JlYXRpdmVjb21tb25zLm9yZy9ucyMiIHhtbG5zOnJkZj0iaHR0cDovL3d3dy53My5vcmcvMTk5OS8wMi8yMi1yZGYtc3ludGF4LW5zIyIgeG1sbnM6c3ZnPSJodHRwOi8vd3d3LnczLm9yZy8yMDAwL3N2ZyIgeG1sbnM9Imh0dHA6Ly93d3cudzMub3JnLzIwMDAvc3ZnIiB4bWxuczpzb2RpcG9kaT0iaHR0cDovL3NvZGlwb2RpLnNvdXJjZWZvcmdlLm5ldC9EVEQvc29kaXBvZGktMC5kdGQiIHhtbG5zOmlua3NjYXBlPSJodHRwOi8vd3d3Lmlua3NjYXBlLm9yZy9uYW1lc3BhY2VzL2lua3NjYXBlIiB2ZXJzaW9uPSIxLjEiIGlkPSJzdmcyODMzMiIgaW5rc2NhcGU6dmVyc2lvbj0iMC45Mi4zICgyNDA1NTQ2LCAyMDE4LTAzLTExKSIgc29kaXBvZGk6ZG9jbmFtZT0iYXp1cmVfc2VydmljZV9idXNfdG9waWNzLnN2ZyIgeD0iMHB4IiB5PSIwcHgiIHZpZXdCb3g9IjAgMCAzNy41IDM3LjUiIHN0eWxlPSJlbmFibGUtYmFja2dyb3VuZDpuZXcgMCAwIDM3LjUgMzcuNTsiIHhtbDpzcGFjZT0icHJlc2VydmUiPjxtZXRhZGF0YSBpZD0ibWV0YWRhdGE0Mzg2NiI+PHJkZjpSREY+PGNjOldvcmsgcmRmOmFib3V0PSIiPjxkYzpmb3JtYXQ+aW1hZ2Uvc3ZnK3htbDwvZGM6Zm9ybWF0PjxkYzp0eXBlIHJkZjpyZXNvdXJjZT0iaHR0cDovL3B1cmwub3JnL2RjL2RjbWl0eXBlL1N0aWxsSW1hZ2UiLz48ZGM6dGl0bGUvPjwvY2M6V29yaz48L3JkZjpSREY+PC9tZXRhZGF0YT48ZGVmcyBpZD0iZGVmczQzODY0Ii8+JiN4YTs8ZmlsdGVyIGlkPSJmaWx0ZXJfMiI+JiN4YTsJPGZlR2F1c3NpYW5CbHVyIGlkPSJmZUdhdXNzaWFuQmx1cjI4MjA5IiBzdGREZXZpYXRpb249IjIiLz4mI3hhOzwvZmlsdGVyPiYjeGE7PHNvZGlwb2RpOm5hbWVkdmlldyBib3JkZXJjb2xvcj0iIzY2NjY2NiIgYm9yZGVyb3BhY2l0eT0iMSIgZml0LW1hcmdpbi1ib3R0b209IjAiIGZpdC1tYXJnaW4tbGVmdD0iMCIgZml0LW1hcmdpbi1yaWdodD0iMCIgZml0LW1hcmdpbi10b3A9IjAiIGdyaWR0b2xlcmFuY2U9IjEwIiBndWlkZXRvbGVyYW5jZT0iMTAiIGlkPSJuYW1lZHZpZXcyODMzNCIgaW5rc2NhcGU6Y3VycmVudC1sYXllcj0ic3ZnMjgzMzIiIGlua3NjYXBlOmN4PSIyNS40NjA4MTQiIGlua3NjYXBlOmN5PSIyMi4zNjk2IiBpbmtzY2FwZTpwYWdlb3BhY2l0eT0iMCIgaW5rc2NhcGU6cGFnZXNoYWRvdz0iMiIgaW5rc2NhcGU6d2luZG93LWhlaWdodD0iMTAxNyIgaW5rc2NhcGU6d2luZG93LW1heGltaXplZD0iMSIgaW5rc2NhcGU6d2luZG93LXdpZHRoPSIxOTIwIiBpbmtzY2FwZTp3aW5kb3cteD0iLTgiIGlua3NjYXBlOndpbmRvdy15PSItOCIgaW5rc2NhcGU6em9vbT0iMTQuOTQ4MjY4IiBvYmplY3R0b2xlcmFuY2U9IjEwIiBwYWdlY29sb3I9IiNmZmZmZmYiIHNob3dncmlkPSJmYWxzZSI+JiN4YTsJPC9zb2RpcG9kaTpuYW1lZHZpZXc+JiN4YTsmI3hhOzxwYXRoIGlkPSJwYXRoMjgyMjIiIGlua3NjYXBlOmNvbm5lY3Rvci1jdXJ2YXR1cmU9IjAiIHN0eWxlPSJmaWxsOiMwMDcyQzY7IiBkPSJNMC42MiwwQzAuMjUsMCwwLDAuMjUsMCwwLjYydjcuNSAgQzAsOC41LDAuMjUsOC43NSwwLjYyLDguNzVoMy43NUM0Ljc1LDguNzUsNSw4LjUsNSw4LjEyVjVoMjcuNXYzLjEzYzAsMC4zNywwLjI1LDAuNjIsMC43NSwwLjYyaDMuNjJjMC4zOCwwLDAuNjMtMC4yNSwwLjYzLTAuNjIgIFY0LjM4VjAuNjNDMzcuNSwwLjI1LDM3LjI1LDAsMzYuODgsMEgwLjYyeiIvPiYjeGE7JiN4YTs8cGF0aCBpZD0icGF0aDI4MjMwIiBpbmtzY2FwZTpjb25uZWN0b3ItY3VydmF0dXJlPSIwIiBzdHlsZT0iZmlsbDojMDA3MkM2OyIgZD0iTTM2Ljg4LDM3LjVjMC4zNywwLDAuNjItMC4yNSwwLjYyLTAuNjJWMjkuNSAgYzAtMC4zNy0wLjI1LTAuNjItMC42Mi0wLjYyaC0zLjYzYy0wLjM3LDAtMC42MiwwLjI1LTAuNjIsMC42MnYzSDV2LTMuMTJjMC0wLjM4LTAuMjUtMC42My0wLjc1LTAuNjNIMC42MkMwLjI1LDI4Ljc1LDAsMjksMCwyOS41ICB2Ny4zOGMwLDAuMzcsMC4yNSwwLjYyLDAuNjIsMC42MkgzNi44OHoiLz4mI3hhOyYjeGE7PHJlY3QgaWQ9InJlY3QyODIzOCIgeD0iMTQuMSIgeT0iMTYuMDMiIHRyYW5zZm9ybT0ibWF0cml4KDAuNzA3MSAtMC43MDcxIDAuNzA3MSAwLjcwNzEgLTcuNDY2OCAxNS43MjI0KSIgc3R5bGU9ImZpbGw6I0I4RDQzMjsiIHdpZHRoPSIyLjI5IiBoZWlnaHQ9IjEuNjkiLz4mI3hhOyYjeGE7PHJlY3QgaWQ9InJlY3QyODI0NiIgeD0iMTYuNDUiIHk9IjEzLjY4IiB0cmFuc2Zvcm09Im1hdHJpeCgwLjcwNzEgLTAuNzA3MSAwLjcwNzEgMC43MDcxIC01LjExOSAxNi42OTU5KSIgc3R5bGU9ImZpbGw6I0I4RDQzMjsiIHdpZHRoPSIyLjI5IiBoZWlnaHQ9IjEuNyIvPiYjeGE7JiN4YTs8cGF0aCBpZD0icGF0aDI4MjU0IiBpbmtzY2FwZTpjb25uZWN0b3ItY3VydmF0dXJlPSIwIiBzdHlsZT0iZmlsbDojQjhENDMyOyIgZD0iTTE5LjczLDEzLjU4bC0xLjItMS4xOWwxLjYtMS42MWwxLjIsMS4yICBMMTkuNzMsMTMuNTh6Ii8+JiN4YTsmI3hhOzxyZWN0IGlkPSJyZWN0MjgyNjIiIHg9IjE5LjA5IiB5PSIyMy42OCIgdHJhbnNmb3JtPSJtYXRyaXgoMC43MDczIC0wLjcwNjkgMC43MDY5IDAuNzA3MyAtMTEuNzA1IDIxLjM1NDIpIiBzdHlsZT0iZmlsbDojQjhENDMyOyIgd2lkdGg9IjEuNyIgaGVpZ2h0PSIyLjI3Ii8+JiN4YTsmI3hhOzxwYXRoIGlkPSJwYXRoMjgyNzAiIGlua3NjYXBlOmNvbm5lY3Rvci1jdXJ2YXR1cmU9IjAiIHN0eWxlPSJmaWxsOiNCOEQ0MzI7IiBkPSJNMTcuODEsMjMuODdsLTEuNjItMS42MmwxLjItMS4xOWwxLjYyLDEuNjIgIEwxNy44MSwyMy44N3oiLz4mI3hhOyYjeGE7PHBhdGggaWQ9InBhdGgyODI3OCIgaW5rc2NhcGU6Y29ubmVjdG9yLWN1cnZhdHVyZT0iMCIgc3R5bGU9ImZpbGw6I0I4RDQzMjsiIGQ9Ik0xNS40NiwyMS41MmwtMS42Mi0xLjYybDEuMi0xLjE5bDEuNjEsMS42MSAgTDE1LjQ2LDIxLjUyeiIvPiYjeGE7JiN4YTs8cGF0aCBpZD0icGF0aDI4Mjg2IiBpbmtzY2FwZTpjb25uZWN0b3ItY3VydmF0dXJlPSIwIiBzdHlsZT0iZmlsbDojNTlCNEQ5OyIgZD0iTTI3LjEsMTEuNDRjLTAuNCwwLjM5LTAuOTIsMC42MS0xLjQ4LDAuNjEgIHMtMS4wOS0wLjIxLTEuNDgtMC42MUwyMS4zLDguNnY1Ljc3aDguNjRWOC42TDI3LjEsMTEuNDR6Ii8+JiN4YTs8ZyBpZD0ic2hhZG93MjU1LTQ4IiB0cmFuc2Zvcm09InRyYW5zbGF0ZSgyMS42NDQ5LC0yOS45MDAyKSI+JiN4YTsJPGcgaWQ9InBhdGgyODI5MSIgaW5rc2NhcGU6Y29ubmVjdG9yLWN1cnZhdHVyZT0iMCIgc3R5bGU9ImZpbHRlcjp1cmwoI2ZpbHRlcl8yKTsiPiYjeGE7CQk8cGF0aCBzdHlsZT0ib3BhY2l0eTowLjIyO2ZpbGw6IzVCOUJENTsiIGQ9Ik00LjMyLDQzLjVjMC40NCwwLDAuODYtMC4xNywxLjE4LTAuNDlsMy4xNC0zLjE0di0wLjE2SDB2MC4xNmwzLjE0LDMuMTQgICAgQzMuNDUsNDMuMzMsMy44Nyw0My41LDQuMzIsNDMuNXoiIGlkPSJwYXRoNDM4MzgiLz4mI3hhOwk8L2c+JiN4YTs8L2c+JiN4YTs8cGF0aCBpZD0icGF0aDI4Mjk0IiBpbmtzY2FwZTpjb25uZWN0b3ItY3VydmF0dXJlPSIwIiBzdHlsZT0iZmlsbDojNTlCNEQ5OyIgZD0iTTI1LjYyLDExLjYzYzAuNDQsMCwwLjg2LTAuMTcsMS4xOC0wLjQ5TDI5Ljk0LDggIFY3Ljg0SDIxLjNWOGwzLjE0LDMuMTRDMjQuNzUsMTEuNDYsMjUuMTcsMTEuNjMsMjUuNjIsMTEuNjN6Ii8+JiN4YTsmI3hhOzxwYXRoIGlkPSJwYXRoMjgzMDIiIGlua3NjYXBlOmNvbm5lY3Rvci1jdXJ2YXR1cmU9IjAiIHN0eWxlPSJmaWxsOiM1OUI0RDk7IiBkPSJNMjcuMSwyNi4yM2MtMC40LDAuMzktMC45MiwwLjYxLTEuNDgsMC42MSAgcy0xLjA5LTAuMjEtMS40OC0wLjYxbC0yLjg0LTIuODR2NS43N2g4LjY0di01Ljc3TDI3LjEsMjYuMjN6Ii8+JiN4YTs8ZyBpZD0ic2hhZG93MjU3LTU4IiB0cmFuc2Zvcm09InRyYW5zbGF0ZSgyMS42NDQ5LC0xNS4xMDcxKSI+JiN4YTsJPGcgaWQ9InBhdGgyODMwNyIgaW5rc2NhcGU6Y29ubmVjdG9yLWN1cnZhdHVyZT0iMCIgc3R5bGU9ImZpbHRlcjp1cmwoI2ZpbHRlcl8yKTsiPiYjeGE7CQk8cGF0aCBzdHlsZT0ib3BhY2l0eTowLjIyO2ZpbGw6IzVCOUJENTsiIGQ9Ik00LjMyLDQzLjVjMC40NCwwLDAuODYtMC4xNywxLjE4LTAuNDlsMy4xNC0zLjE0di0wLjE2SDB2MC4xNmwzLjE0LDMuMTQgICAgQzMuNDUsNDMuMzMsMy44Nyw0My41LDQuMzIsNDMuNXoiIGlkPSJwYXRoNDM4NDgiLz4mI3hhOwk8L2c+JiN4YTs8L2c+JiN4YTs8cGF0aCBpZD0icGF0aDI4MzEwIiBpbmtzY2FwZTpjb25uZWN0b3ItY3VydmF0dXJlPSIwIiBzdHlsZT0iZmlsbDojNTlCNEQ5OyIgZD0iTTI1LjYyLDI2LjQyYzAuNDQsMCwwLjg2LTAuMTcsMS4xOC0wLjQ5bDMuMTQtMy4xNCAgdi0wLjE2SDIxLjN2MC4xNmwzLjE0LDMuMTRDMjQuNzUsMjYuMjUsMjUuMTcsMjYuNDIsMjUuNjIsMjYuNDJ6Ii8+JiN4YTsmI3hhOzxwYXRoIGlkPSJwYXRoMjgzMTgiIGlua3NjYXBlOmNvbm5lY3Rvci1jdXJ2YXR1cmU9IjAiIHN0eWxlPSJmaWxsOiM1OUI0RDk7IiBkPSJNOS4yNCwxOS4wM2MtMC42MywwLjYzLTEuNDcsMC45OC0yLjM2LDAuOTggIHMtMS43My0wLjM1LTIuMzYtMC45OEwwLDE0LjUxdjkuMTloMTMuNzd2LTkuMTlMOS4yNCwxOS4wM3oiLz4mI3hhOzxnIGlkPSJzaGFkb3cyNTktNjgiIHRyYW5zZm9ybT0idHJhbnNsYXRlKDAuMzQ1NiwtMjIuMTkwOSkiPiYjeGE7CTxnIGlkPSJwYXRoMjgzMjMiIGlua3NjYXBlOmNvbm5lY3Rvci1jdXJ2YXR1cmU9IjAiIHN0eWxlPSJmaWx0ZXI6dXJsKCNmaWx0ZXJfMik7Ij4mI3hhOwkJPHBhdGggc3R5bGU9Im9wYWNpdHk6MC4yMjtmaWxsOiM1QjlCRDU7IiBkPSJNNi44OCw0My41YzAuNzIsMCwxLjM4LTAuMjgsMS44OS0wLjc4bDUtNXYtMC4yNkgwdjAuMjZsNSw1ICAgIEM1LjUsNDMuMjIsNi4xNyw0My41LDYuODgsNDMuNXoiIGlkPSJwYXRoNDM4NTgiLz4mI3hhOwk8L2c+JiN4YTs8L2c+JiN4YTs8cGF0aCBpZD0icGF0aDI4MzI2IiBpbmtzY2FwZTpjb25uZWN0b3ItY3VydmF0dXJlPSIwIiBzdHlsZT0iZmlsbDojNTlCNEQ5OyIgZD0iTTYuODgsMTkuMzRjMC43MiwwLDEuMzgtMC4yOCwxLjg5LTAuNzhsNS01VjEzLjNIMCAgdjAuMjZsNSw1QzUuNSwxOS4wNiw2LjE3LDE5LjM0LDYuODgsMTkuMzR6Ii8+JiN4YTs8L3N2Zz4=;labelPosition=right;align=left;fontStyle=1" vertex="1" parent="1">
          <mxGeometry x="17" y="1195" width="58" height="58" as="geometry" />
        </mxCell>
        <mxCell id="0UxCvQG6T92VqQAPfvvK-171" style="edgeStyle=none;curved=1;rounded=0;orthogonalLoop=1;jettySize=auto;html=1;entryX=0.25;entryY=0;entryDx=0;entryDy=0;fontSize=12;startSize=8;endSize=8;dashed=1;strokeWidth=2;" edge="1" parent="1" target="0UxCvQG6T92VqQAPfvvK-166">
          <mxGeometry relative="1" as="geometry">
            <mxPoint x="-163" y="1093" as="sourcePoint" />
            <mxPoint x="-163" y="1186" as="targetPoint" />
          </mxGeometry>
        </mxCell>
        <mxCell id="0UxCvQG6T92VqQAPfvvK-172" style="edgeStyle=none;curved=1;rounded=0;orthogonalLoop=1;jettySize=auto;html=1;entryX=0.25;entryY=0;entryDx=0;entryDy=0;fontSize=12;startSize=8;endSize=8;dashed=1;strokeWidth=2;" edge="1" parent="1">
          <mxGeometry relative="1" as="geometry">
            <mxPoint x="35.71000000000001" y="1089" as="sourcePoint" />
            <mxPoint x="35.71000000000001" y="1182" as="targetPoint" />
          </mxGeometry>
        </mxCell>
        <mxCell id="0UxCvQG6T92VqQAPfvvK-173" style="edgeStyle=none;curved=1;rounded=0;orthogonalLoop=1;jettySize=auto;html=1;fontSize=12;startSize=8;endSize=8;dashed=1;strokeWidth=2;" edge="1" parent="1">
          <mxGeometry relative="1" as="geometry">
            <mxPoint x="192" y="1180" as="sourcePoint" />
            <mxPoint x="192" y="1087" as="targetPoint" />
          </mxGeometry>
        </mxCell>
        <mxCell id="0UxCvQG6T92VqQAPfvvK-174" value="External Biller" style="rounded=1;whiteSpace=wrap;html=1;verticalAlign=top;fontStyle=1;fillColor=#cce5ff;strokeColor=#36393d;" vertex="1" parent="1">
          <mxGeometry x="392" y="233" width="163" height="153" as="geometry" />
        </mxCell>
        <mxCell id="0UxCvQG6T92VqQAPfvvK-175" value="External BDI" style="rounded=1;whiteSpace=wrap;html=1;verticalAlign=top;fontStyle=1;fillColor=#cce5ff;strokeColor=#36393d;" vertex="1" parent="1">
          <mxGeometry x="393" y="59" width="163" height="153" as="geometry" />
        </mxCell>
        <mxCell id="0UxCvQG6T92VqQAPfvvK-149" value="Client" style="rounded=0;whiteSpace=wrap;html=1;dashed=1;verticalAlign=top;fontStyle=1" vertex="1" parent="1">
          <mxGeometry x="-138" y="-112" width="364" height="193" as="geometry" />
        </mxCell>
        <mxCell id="0UxCvQG6T92VqQAPfvvK-148" value="Internal MUFG" style="rounded=1;whiteSpace=wrap;html=1;verticalAlign=top;fontStyle=1;fillColor=#cce5ff;strokeColor=#36393d;" vertex="1" parent="1">
          <mxGeometry x="-125" y="-86" width="163" height="153" as="geometry" />
        </mxCell>
        <mxCell id="0UxCvQG6T92VqQAPfvvK-7" value="Internal MUFG" style="rounded=1;whiteSpace=wrap;html=1;verticalAlign=top;fontStyle=1;fillColor=#cce5ff;strokeColor=#36393d;" vertex="1" parent="1">
          <mxGeometry x="73" y="-86" width="123" height="153" as="geometry" />
        </mxCell>
        <mxCell id="0UxCvQG6T92VqQAPfvvK-144" value="ENS" style="shape=image;verticalLabelPosition=bottom;labelBackgroundColor=#ffffff;verticalAlign=top;aspect=fixed;imageAspect=0;image=data:image/svg+xml,PHN2ZyB4bWxuczpjYz0iaHR0cDovL2NyZWF0aXZlY29tbW9ucy5vcmcvbnMjIiB4bWxuczpkYz0iaHR0cDovL3B1cmwub3JnL2RjL2VsZW1lbnRzLzEuMS8iIHhtbG5zOmlua3NjYXBlPSJodHRwOi8vd3d3Lmlua3NjYXBlLm9yZy9uYW1lc3BhY2VzL2lua3NjYXBlIiB4bWxuczpyZGY9Imh0dHA6Ly93d3cudzMub3JnLzE5OTkvMDIvMjItcmRmLXN5bnRheC1ucyMiIHhtbG5zOnNvZGlwb2RpPSJodHRwOi8vc29kaXBvZGkuc291cmNlZm9yZ2UubmV0L0RURC9zb2RpcG9kaS0wLmR0ZCIgeG1sbnM6c3ZnPSJodHRwOi8vd3d3LnczLm9yZy8yMDAwL3N2ZyIgeG1sbnM9Imh0dHA6Ly93d3cudzMub3JnLzIwMDAvc3ZnIiB4bWxuczp4bGluaz0iaHR0cDovL3d3dy53My5vcmcvMTk5OS94bGluayIgdmVyc2lvbj0iMS4xIiBpZD0ic3ZnMjg3MDgiIGlua3NjYXBlOnZlcnNpb249IjAuOTIuMyAoMjQwNTU0NiwgMjAxOC0wMy0xMSkiIHNvZGlwb2RpOmRvY25hbWU9InNtdHBfc2VydmVyLnN2ZyIgeD0iMHB4IiB5PSIwcHgiIHZpZXdCb3g9IjAgMCA1OS4yMyA2OS43NSIgc3R5bGU9ImVuYWJsZS1iYWNrZ3JvdW5kOm5ldyAwIDAgNTkuMjMgNjkuNzU7IiB4bWw6c3BhY2U9InByZXNlcnZlIj4mI3hhOzxzb2RpcG9kaTpuYW1lZHZpZXcgYm9yZGVyY29sb3I9IiM2NjY2NjYiIGJvcmRlcm9wYWNpdHk9IjEiIGZpdC1tYXJnaW4tYm90dG9tPSIwIiBmaXQtbWFyZ2luLWxlZnQ9IjAiIGZpdC1tYXJnaW4tcmlnaHQ9IjAiIGZpdC1tYXJnaW4tdG9wPSIwIiBncmlkdG9sZXJhbmNlPSIxMCIgZ3VpZGV0b2xlcmFuY2U9IjEwIiBpZD0ibmFtZWR2aWV3Mjg3MTAiIGlua3NjYXBlOmN1cnJlbnQtbGF5ZXI9InN2ZzI4NzA4IiBpbmtzY2FwZTpjeD0iMzkuNDg4MTkzIiBpbmtzY2FwZTpjeT0iNDYuNDk5OTkzIiBpbmtzY2FwZTpwYWdlb3BhY2l0eT0iMCIgaW5rc2NhcGU6cGFnZXNoYWRvdz0iMiIgaW5rc2NhcGU6d2luZG93LWhlaWdodD0iMTAxNyIgaW5rc2NhcGU6d2luZG93LW1heGltaXplZD0iMSIgaW5rc2NhcGU6d2luZG93LXdpZHRoPSIxOTIwIiBpbmtzY2FwZTp3aW5kb3cteD0iLTgiIGlua3NjYXBlOndpbmRvdy15PSItOCIgaW5rc2NhcGU6em9vbT0iOS4xMjYzMTg3IiBvYmplY3R0b2xlcmFuY2U9IjEwIiBwYWdlY29sb3I9IiNmZmZmZmYiIHNob3dncmlkPSJmYWxzZSI+JiN4YTsJPC9zb2RpcG9kaTpuYW1lZHZpZXc+JiN4YTs8ZyBpZD0iZzI4NzA2IiB0cmFuc2Zvcm09InRyYW5zbGF0ZSgtMC43NSwtMC43NSkiPiYjeGE7CTx0aXRsZSBpZD0idGl0bGUyODYxMCI+UGFnZS0xPC90aXRsZT4mI3hhOwk8ZyBpZD0iZ3JvdXA4MTI1LTEiIHRyYW5zZm9ybT0idHJhbnNsYXRlKDEuNSwtMS41KSI+JiN4YTsJCTx0aXRsZSBpZD0idGl0bGUyODYxMiI+U01UUCBTZXJ2ZXI8L3RpdGxlPiYjeGE7CQk8ZyBpZD0iZ3JvdXA4MTI2LTIiPiYjeGE7CQkJPHRpdGxlIGlkPSJ0aXRsZTI4NjE0Ij5TZXJ2ZXIgIzIuNTg4PC90aXRsZT4mI3hhOwkJCTxnIGlkPSJzaGFwZTgxMjctMyI+JiN4YTsJCQkJPHRpdGxlIGlkPSJ0aXRsZTI4NjE2Ij5yZWN0MTU2MTA8L3RpdGxlPiYjeGE7CQkJCSYjeGE7CQkJCQk8cmVjdCBpZD0icmVjdDI4NjE4IiB4PSIwIiB5PSIzIiBzdHlsZT0iZmlsbDojRkZGRkZGO3N0cm9rZTojNTU2QThBO3N0cm9rZS13aWR0aDoxLjU7c3Ryb2tlLW1pdGVybGltaXQ6MzsiIHdpZHRoPSI0MC42IiBoZWlnaHQ9IjY4LjI1Ii8+JiN4YTsJCQk8L2c+JiN4YTsJCQk8ZyBpZD0iZ3JvdXA4MTI4LTUiIHRyYW5zZm9ybT0idHJhbnNsYXRlKDEuNzI3ODUsLTAuODYzOTI0KSI+JiN4YTsJCQkJPHRpdGxlIGlkPSJ0aXRsZTI4NjIxIj5nMTU2MjI8L3RpdGxlPiYjeGE7CQkJCTxnIGlkPSJzaGFwZTgxMjktNiIgdHJhbnNmb3JtPSJ0cmFuc2xhdGUoMTkuODcwMykiPiYjeGE7CQkJCQk8dGl0bGUgaWQ9InRpdGxlMjg2MjMiPnJlY3QxNTYxMjwvdGl0bGU+JiN4YTsJCQkJCTxyZWN0IGlkPSJyZWN0Mjg2MjUiIHg9IjAiIHk9IjQuNzMiIHN0eWxlPSJmaWxsOiNFNUU1RTU7IiB3aWR0aD0iMTguMTQiIGhlaWdodD0iNjYuNTIiLz4mI3hhOwkJCQk8L2c+JiN4YTsJCQkJPGcgaWQ9InNoYXBlODEzMC04IiB0cmFuc2Zvcm09InRyYW5zbGF0ZSgwLC01Ny4wMTkpIj4mI3hhOwkJCQkJPHRpdGxlIGlkPSJ0aXRsZTI4NjI4Ij5wb2x5Z29uMTU2MTQ8L3RpdGxlPiYjeGE7CQkJCQk8cmVjdCBpZD0icmVjdDI4NjMwIiB4PSIwIiB5PSI2OC42NiIgc3R5bGU9ImZpbGw6bm9uZTsiIHdpZHRoPSIzMS4xIiBoZWlnaHQ9IjIuNTkiLz4mI3hhOwkJCQk8L2c+JiN4YTsJCQkJPGcgaWQ9InNoYXBlODEzMS0xMCIgdHJhbnNmb3JtPSJ0cmFuc2xhdGUoMCwtNTcuMDE5KSI+JiN4YTsJCQkJCTx0aXRsZSBpZD0idGl0bGUyODYzMyI+cG9seWxpbmUxNTYxNjwvdGl0bGU+JiN4YTsJCQkJCTxyZWN0IGlkPSJyZWN0Mjg2MzUiIHg9IjAiIHk9IjY4LjY2IiBzdHlsZT0iZmlsbDpub25lOyIgd2lkdGg9IjMxLjEiIGhlaWdodD0iMi41OSIvPiYjeGE7CQkJCTwvZz4mI3hhOwkJCQk8ZyBpZD0ic2hhcGU4MTMyLTEyIiB0cmFuc2Zvcm09InRyYW5zbGF0ZSgwLC01Ny4wMTkpIj4mI3hhOwkJCQkJPHRpdGxlIGlkPSJ0aXRsZTI4NjM4Ij5yZWN0MTU2MTg8L3RpdGxlPiYjeGE7CQkJCQk8cmVjdCBpZD0icmVjdDI4NjQwIiB4PSIwIiB5PSI2OC42NiIgc3R5bGU9ImZpbGw6IzJCQzdGNDsiIHdpZHRoPSIyMC43MyIgaGVpZ2h0PSIyLjU5Ii8+JiN4YTsJCQkJPC9nPiYjeGE7CQkJCTxnIGlkPSJzaGFwZTgxMzMtMTQiIHRyYW5zZm9ybT0idHJhbnNsYXRlKDE5Ljg3MDMsLTU3LjAxOSkiPiYjeGE7CQkJCQk8dGl0bGUgaWQ9InRpdGxlMjg2NDMiPnJlY3QxNTYyMDwvdGl0bGU+JiN4YTsJCQkJCTxyZWN0IGlkPSJyZWN0Mjg2NDUiIHg9IjAiIHk9IjY4LjY2IiBzdHlsZT0iZmlsbDojNTU2QThBOyIgd2lkdGg9IjE4LjE0IiBoZWlnaHQ9IjIuNTkiLz4mI3hhOwkJCQk8L2c+JiN4YTsJCQk8L2c+JiN4YTsJCQk8ZyBpZD0ic2hhcGU4MTM0LTE2IiB0cmFuc2Zvcm09InRyYW5zbGF0ZSgwLjg2MzkyNCwtNTcuODgyOSkiPiYjeGE7CQkJCTx0aXRsZSBpZD0idGl0bGUyODY0OSI+cmVjdDE1NjI0PC90aXRsZT4mI3hhOwkJCQk8cmVjdCBpZD0icmVjdDI4NjUxIiB4PSIwIiB5PSI2OC42NiIgc3R5bGU9ImZpbGw6IzU1NkE4QTsiIHdpZHRoPSIyLjU5IiBoZWlnaHQ9IjIuNTkiLz4mI3hhOwkJCTwvZz4mI3hhOwkJCTxnIGlkPSJzaGFwZTgxMzUtMTgiIHRyYW5zZm9ybT0idHJhbnNsYXRlKDEuNzI3ODUsLTUwLjk3MTUpIj4mI3hhOwkJCQk8dGl0bGUgaWQ9InRpdGxlMjg2NTQiPnJlY3QxNTYyNjwvdGl0bGU+JiN4YTsJCQkJPHJlY3QgaWQ9InJlY3QyODY1NiIgeD0iMCIgeT0iNjguNjYiIHN0eWxlPSJmaWxsOiMyQkM3RjQ7IiB3aWR0aD0iMjAuNzMiIGhlaWdodD0iMi41OSIvPiYjeGE7CQkJPC9nPiYjeGE7CQkJPGcgaWQ9InNoYXBlODEzNi0yMCIgdHJhbnNmb3JtPSJ0cmFuc2xhdGUoMjEuNTk4MSwtNTAuOTcxNSkiPiYjeGE7CQkJCTx0aXRsZSBpZD0idGl0bGUyODY1OSI+cmVjdDE1NjI4PC90aXRsZT4mI3hhOwkJCQk8cmVjdCBpZD0icmVjdDI4NjYxIiB4PSIwIiB5PSI2OC42NiIgc3R5bGU9ImZpbGw6IzU1NkE4QTsiIHdpZHRoPSIxOC4xNCIgaGVpZ2h0PSIyLjU5Ii8+JiN4YTsJCQk8L2c+JiN4YTsJCQk8ZyBpZD0ic2hhcGU4MTM3LTIyIiB0cmFuc2Zvcm09InRyYW5zbGF0ZSgwLjg2MzkyNCwtNTAuOTcxNSkiPiYjeGE7CQkJCTx0aXRsZSBpZD0idGl0bGUyODY2NCI+cmVjdDE1NjMwPC90aXRsZT4mI3hhOwkJCQk8cmVjdCBpZD0icmVjdDI4NjY2IiB4PSIwIiB5PSI2OC42NiIgc3R5bGU9ImZpbGw6IzU1NkE4QTsiIHdpZHRoPSIyLjU5IiBoZWlnaHQ9IjIuNTkiLz4mI3hhOwkJCTwvZz4mI3hhOwkJPC9nPiYjeGE7CQk8ZyBpZD0iZ3JvdXA4MTM4LTI0IiB0cmFuc2Zvcm09InRyYW5zbGF0ZSgyMy40ODk3LC00LjAzMzUyKSI+JiN4YTsJCQk8dGl0bGUgaWQ9InRpdGxlMjg2NzAiPmc0NjYzPC90aXRsZT4mI3hhOwkJCTxnIGlkPSJzaGFwZTgxMzktMjUiPiYjeGE7CQkJCTx0aXRsZSBpZD0idGl0bGUyODY3MiI+cGF0aDQ2NTE8L3RpdGxlPiYjeGE7CQkJCTxwYXRoIGlkPSJwYXRoMjg2NzQiIGlua3NjYXBlOmNvbm5lY3Rvci1jdXJ2YXR1cmU9IjAiIHN0eWxlPSJmaWxsOiNGRkZGRkY7IiBkPSJNMzQuMjQsNDguMDR2MjIuMWMwLjAxLDAuNi0wLjQ3LDEuMS0xLjA3LDEuMTEgICAgICBIMS4wN2MtMC42LTAuMDEtMS4wOC0wLjUxLTEuMDctMS4xMXYtMjIuMWMwLTAuMTEsMC4wMi0wLjIyLDAuMDUtMC4zM2MwLjA1LTAuMTgsMC4xNS0wLjM0LDAuMjktMC40NyAgICAgIGMwLjE5LTAuMiwwLjQ1LTAuMzEsMC43My0wLjMxaDMyLjFjMC4yOSwwLDAuNTcsMC4xMiwwLjc3LDAuMzRjMC4xMywwLjEzLDAuMjIsMC4zLDAuMjYsMC40OCAgICAgIEMzNC4yMyw0Ny44NCwzNC4yNSw0Ny45NCwzNC4yNCw0OC4wNEwzNC4yNCw0OC4wNHoiLz4mI3hhOwkJCTwvZz4mI3hhOwkJCTxnIGlkPSJzaGFwZTgxNDAtMjciIHRyYW5zZm9ybT0idHJhbnNsYXRlKDMwLjI2MDgpIj4mI3hhOwkJCQk8dGl0bGUgaWQ9InRpdGxlMjg2NzciPnBhdGg0NjUzPC90aXRsZT4mI3hhOwkJCQk8cGF0aCBpZD0icGF0aDI4Njc5IiBpbmtzY2FwZTpjb25uZWN0b3ItY3VydmF0dXJlPSIwIiBzdHlsZT0iZmlsbDojRTVFNUU1OyIgZD0iTTMuOTgsNDguMDR2MjIuMWMwLjAxLDAuNi0wLjQ3LDEuMS0xLjA3LDEuMTEgICAgICBIMFY0Ni45NmgyLjkxYzAuMjksMCwwLjU3LDAuMTIsMC43NywwLjM0YzAuMTMsMC4xMywwLjIyLDAuMywwLjI2LDAuNDhDMy45Nyw0Ny44NiwzLjk4LDQ3Ljk1LDMuOTgsNDguMDRMMy45OCw0OC4wNHoiLz4mI3hhOwkJCTwvZz4mI3hhOwkJCTxnIGlkPSJzaGFwZTgxNDEtMjkiPiYjeGE7CQkJCTx0aXRsZSBpZD0idGl0bGUyODY4MiI+cGF0aDQ2NTU8L3RpdGxlPiYjeGE7CQkJCTxwYXRoIGlkPSJwYXRoMjg2ODQiIGlua3NjYXBlOmNvbm5lY3Rvci1jdXJ2YXR1cmU9IjAiIHN0eWxlPSJmaWxsOiNFNUU1RTU7IiBkPSJNMCw0OC4wNHYyMi4xYy0wLjAxLDAuNiwwLjQ3LDEuMSwxLjA3LDEuMTEgICAgICBoMi45MVY0Ni45NkgxLjA3Yy0wLjI5LDAtMC41NywwLjEyLTAuNzYsMC4zNGMtMC4xMywwLjEzLTAuMjIsMC4zLTAuMjYsMC40OEMwLjAyLDQ3Ljg2LDAuMDEsNDcuOTUsMCw0OC4wNEwwLDQ4LjA0eiIvPiYjeGE7CQkJPC9nPiYjeGE7CQkJPGcgaWQ9InNoYXBlODE0Mi0zMSIgdHJhbnNmb3JtPSJ0cmFuc2xhdGUoMC4zOTgxNjgsLTE0LjAzNTQpIj4mI3hhOwkJCQk8dGl0bGUgaWQ9InRpdGxlMjg2ODciPnBvbHlnb240NjU3PC90aXRsZT4mI3hhOwkJCQk8cGF0aCBpZD0icGF0aDI4Njg5IiBpbmtzY2FwZTpjb25uZWN0b3ItY3VydmF0dXJlPSIwIiBzdHlsZT0iZmlsbDojNTVEMkY2OyIgZD0iTTMzLjE0LDYxLjI4SDBsMTYuNzIsOS45N0wzMy4xNCw2MS4yOHoiLz4mI3hhOwkJCTwvZz4mI3hhOwkJCTxnIGlkPSJzaGFwZTgxNDMtMzMiIHRyYW5zZm9ybT0idHJhbnNsYXRlKDAsLTAuMTE5NDUxKSI+JiN4YTsJCQkJPHRpdGxlIGlkPSJ0aXRsZTI4NjkyIj5wYXRoNDY1OTwvdGl0bGU+JiN4YTsJCQkJJiN4YTsJCQkJCTxwYXRoIGlkPSJwYXRoMjg2OTQiIGlua3NjYXBlOmNvbm5lY3Rvci1jdXJ2YXR1cmU9IjAiIHN0eWxlPSJmaWxsOm5vbmU7c3Ryb2tlOiM1NTZBOEE7c3Ryb2tlLXdpZHRoOjEuNTtzdHJva2UtbWl0ZXJsaW1pdDozOyIgZD0iICAgICAgTTM0LjI0LDQ4LjQ1djIxLjcxYzAsMC42LTAuNDcsMS4wOC0xLjA3LDEuMDlIMS4wN0MwLjQ3LDcxLjI0LDAsNzAuNzYsMCw3MC4xNlY0OC40NWMwLTAuMTEsMC4wMi0wLjIyLDAuMDUtMC4zMiAgICAgIGMwLjE0LTAuNDUsMC41NS0wLjc2LDEuMDItMC43N2gzMi4xYzAuMjksMCwwLjU3LDAuMTIsMC43NywwLjMzYzAuMTMsMC4xMywwLjIyLDAuMywwLjI2LDAuNDggICAgICBDMzQuMjMsNDguMjYsMzQuMjUsNDguMzYsMzQuMjQsNDguNDVMMzQuMjQsNDguNDV6Ii8+JiN4YTsJCQk8L2c+JiN4YTsJCQk8ZyBpZD0ic2hhcGU4MTQ0LTM1IiB0cmFuc2Zvcm09InRyYW5zbGF0ZSgwLjU1MzQ1NCwtMTQuMDM1NCkiPiYjeGE7CQkJCTx0aXRsZSBpZD0idGl0bGUyODY5NyI+cG9seWxpbmU0NjYxPC90aXRsZT4mI3hhOwkJCQk8cGF0aCBpZD0icGF0aDI4Njk5IiBpbmtzY2FwZTpjb25uZWN0b3ItY3VydmF0dXJlPSIwIiBzdHlsZT0iZmlsbDpub25lOyIgZD0iTTAsNjEuMzFsMTYuNTcsOS45NGwxNi41Ny05Ljk0SDB6Ii8+JiN4YTsJCQkJJiN4YTsJCQkJCTxwYXRoIGlkPSJwYXRoMjg3MDEiIGlua3NjYXBlOmNvbm5lY3Rvci1jdXJ2YXR1cmU9IjAiIHN0eWxlPSJmaWxsOm5vbmU7c3Ryb2tlOiM1NTZBOEE7c3Ryb2tlLXdpZHRoOjEuNTtzdHJva2UtbWl0ZXJsaW1pdDozOyIgZD0iICAgICAgTTAsNjEuMzFsMTYuNTcsOS45NGwxNi41Ny05Ljk0Ii8+JiN4YTsJCQk8L2c+JiN4YTsJCTwvZz4mI3hhOwk8L2c+JiN4YTs8L2c+JiN4YTs8L3N2Zz4=;" vertex="1" parent="1">
          <mxGeometry x="-39" y="-47" width="59" height="70" as="geometry" />
        </mxCell>
        <mxCell id="0UxCvQG6T92VqQAPfvvK-191" style="edgeStyle=orthogonalEdgeStyle;rounded=0;orthogonalLoop=1;jettySize=auto;html=1;entryX=0.5;entryY=0;entryDx=0;entryDy=0;fontSize=12;startSize=8;endSize=8;dashed=1;strokeWidth=2;" edge="1" parent="1" source="0UxCvQG6T92VqQAPfvvK-145" target="0UxCvQG6T92VqQAPfvvK-190">
          <mxGeometry relative="1" as="geometry" />
        </mxCell>
        <mxCell id="0UxCvQG6T92VqQAPfvvK-145" value="ALPHA" style="shape=image;verticalLabelPosition=bottom;labelBackgroundColor=#ffffff;verticalAlign=top;aspect=fixed;imageAspect=0;image=data:image/svg+xml,PHN2ZyB4bWxuczpjYz0iaHR0cDovL2NyZWF0aXZlY29tbW9ucy5vcmcvbnMjIiB4bWxuczpkYz0iaHR0cDovL3B1cmwub3JnL2RjL2VsZW1lbnRzLzEuMS8iIHhtbG5zOmlua3NjYXBlPSJodHRwOi8vd3d3Lmlua3NjYXBlLm9yZy9uYW1lc3BhY2VzL2lua3NjYXBlIiB4bWxuczpyZGY9Imh0dHA6Ly93d3cudzMub3JnLzE5OTkvMDIvMjItcmRmLXN5bnRheC1ucyMiIHhtbG5zOnNvZGlwb2RpPSJodHRwOi8vc29kaXBvZGkuc291cmNlZm9yZ2UubmV0L0RURC9zb2RpcG9kaS0wLmR0ZCIgeG1sbnM6c3ZnPSJodHRwOi8vd3d3LnczLm9yZy8yMDAwL3N2ZyIgeG1sbnM9Imh0dHA6Ly93d3cudzMub3JnLzIwMDAvc3ZnIiB4bWxuczp4bGluaz0iaHR0cDovL3d3dy53My5vcmcvMTk5OS94bGluayIgdmVyc2lvbj0iMS4xIiBpZD0ic3ZnMjc3MDciIGlua3NjYXBlOnZlcnNpb249IjAuOTIuMyAoMjQwNTU0NiwgMjAxOC0wMy0xMSkiIHNvZGlwb2RpOmRvY25hbWU9InNlcnZpY2Vfc2VydmVyLnN2ZyIgeD0iMHB4IiB5PSIwcHgiIHZpZXdCb3g9IjAgMCA1NS40OCA2OS43NSIgc3R5bGU9ImVuYWJsZS1iYWNrZ3JvdW5kOm5ldyAwIDAgNTUuNDggNjkuNzU7IiB4bWw6c3BhY2U9InByZXNlcnZlIj4mI3hhOzxzb2RpcG9kaTpuYW1lZHZpZXcgYm9yZGVyY29sb3I9IiM2NjY2NjYiIGJvcmRlcm9wYWNpdHk9IjEiIGZpdC1tYXJnaW4tYm90dG9tPSIwIiBmaXQtbWFyZ2luLWxlZnQ9IjAiIGZpdC1tYXJnaW4tcmlnaHQ9IjAiIGZpdC1tYXJnaW4tdG9wPSIwIiBncmlkdG9sZXJhbmNlPSIxMCIgZ3VpZGV0b2xlcmFuY2U9IjEwIiBpZD0ibmFtZWR2aWV3Mjc3MDkiIGlua3NjYXBlOmN1cnJlbnQtbGF5ZXI9InN2ZzI3NzA3IiBpbmtzY2FwZTpjeD0iMzYuOTg3MjAxIiBpbmtzY2FwZTpjeT0iNDYuNTAwMDAyIiBpbmtzY2FwZTpwYWdlb3BhY2l0eT0iMCIgaW5rc2NhcGU6cGFnZXNoYWRvdz0iMiIgaW5rc2NhcGU6d2luZG93LWhlaWdodD0iMTAxNyIgaW5rc2NhcGU6d2luZG93LW1heGltaXplZD0iMSIgaW5rc2NhcGU6d2luZG93LXdpZHRoPSIxOTIwIiBpbmtzY2FwZTp3aW5kb3cteD0iLTgiIGlua3NjYXBlOndpbmRvdy15PSItOCIgaW5rc2NhcGU6em9vbT0iOS4xMjYzMTg3IiBvYmplY3R0b2xlcmFuY2U9IjEwIiBwYWdlY29sb3I9IiNmZmZmZmYiIHNob3dncmlkPSJmYWxzZSI+JiN4YTsJPC9zb2RpcG9kaTpuYW1lZHZpZXc+JiN4YTs8ZyBpZD0iZzI3NzA1IiB0cmFuc2Zvcm09InRyYW5zbGF0ZSgtMC43NSwtMC43NSkiPiYjeGE7CTx0aXRsZSBpZD0idGl0bGUyNzYxNiI+UGFnZS0xPC90aXRsZT4mI3hhOwk8ZyBpZD0iZ3JvdXA3NzgwLTEiIHRyYW5zZm9ybT0idHJhbnNsYXRlKDEuNSwtMS41KSI+JiN4YTsJCTx0aXRsZSBpZD0idGl0bGUyNzYxOCI+U2VydmljZSBTZXJ2ZXI8L3RpdGxlPiYjeGE7CQk8ZyBpZD0iZ3JvdXA3NzgxLTIiPiYjeGE7CQkJPHRpdGxlIGlkPSJ0aXRsZTI3NjIwIj5TaGVldC43NzgxPC90aXRsZT4mI3hhOwkJCTxnIGlkPSJncm91cDc3ODItMyI+JiN4YTsJCQkJPHRpdGxlIGlkPSJ0aXRsZTI3NjIyIj5nMTY0MDg8L3RpdGxlPiYjeGE7CQkJCTxnIGlkPSJzaGFwZTc3ODMtNCI+JiN4YTsJCQkJCTx0aXRsZSBpZD0idGl0bGUyNzYyNCI+cmVjdDE2MzgwPC90aXRsZT4mI3hhOwkJCQkJJiN4YTsJCQkJCQk8cmVjdCBpZD0icmVjdDI3NjI2IiB4PSIwIiB5PSIzIiBzdHlsZT0iZmlsbDojRkZGRkZGO3N0cm9rZTojNTU2QThBO3N0cm9rZS13aWR0aDoxLjU7c3Ryb2tlLW1pdGVybGltaXQ6MzsiIHdpZHRoPSIzOS43NSIgaGVpZ2h0PSI2OC4yNSIvPiYjeGE7CQkJCTwvZz4mI3hhOwkJCQk8ZyBpZD0iZ3JvdXA3Nzg0LTYiIHRyYW5zZm9ybT0idHJhbnNsYXRlKDEuNSwtMC43NSkiPiYjeGE7CQkJCQk8dGl0bGUgaWQ9InRpdGxlMjc2MjkiPmcxNjQwMDwvdGl0bGU+JiN4YTsJCQkJCTxnIGlkPSJzaGFwZTc3ODUtNyIgdHJhbnNmb3JtPSJ0cmFuc2xhdGUoMTgpIj4mI3hhOwkJCQkJCTx0aXRsZSBpZD0idGl0bGUyNzYzMSI+cmVjdDE2MzgyPC90aXRsZT4mI3hhOwkJCQkJCTxyZWN0IGlkPSJyZWN0Mjc2MzMiIHg9IjAiIHk9IjQuNSIgc3R5bGU9ImZpbGw6I0U1RTVFNTsiIHdpZHRoPSIxOS41IiBoZWlnaHQ9IjY2Ljc1Ii8+JiN4YTsJCQkJCTwvZz4mI3hhOwkJCQkJPGcgaWQ9InNoYXBlNzc4Ni05IiB0cmFuc2Zvcm09InRyYW5zbGF0ZSgwLC00OCkiPiYjeGE7CQkJCQkJPHRpdGxlIGlkPSJ0aXRsZTI3NjM2Ij5yZWN0MTYzODQ8L3RpdGxlPiYjeGE7CQkJCQkJPHJlY3QgaWQ9InJlY3QyNzYzOCIgeD0iMCIgeT0iNjkiIHN0eWxlPSJmaWxsOiMyQkM3RjQ7IiB3aWR0aD0iMTgiIGhlaWdodD0iMi4yNSIvPiYjeGE7CQkJCQk8L2c+JiN4YTsJCQkJCTxnIGlkPSJzaGFwZTc3ODctMTEiIHRyYW5zZm9ybT0idHJhbnNsYXRlKDAsLTU4LjUpIj4mI3hhOwkJCQkJCTx0aXRsZSBpZD0idGl0bGUyNzY0MSI+cG9seWdvbjE2Mzg2PC90aXRsZT4mI3hhOwkJCQkJCTxyZWN0IGlkPSJyZWN0Mjc2NDMiIHg9IjAiIHk9IjY5IiBzdHlsZT0iZmlsbDpub25lOyIgd2lkdGg9IjI3IiBoZWlnaHQ9IjIuMjUiLz4mI3hhOwkJCQkJPC9nPiYjeGE7CQkJCQk8ZyBpZD0ic2hhcGU3Nzg4LTEzIiB0cmFuc2Zvcm09InRyYW5zbGF0ZSgwLC01OC41KSI+JiN4YTsJCQkJCQk8dGl0bGUgaWQ9InRpdGxlMjc2NDYiPnBvbHlsaW5lMTYzODg8L3RpdGxlPiYjeGE7CQkJCQkJPHJlY3QgaWQ9InJlY3QyNzY0OCIgeD0iMCIgeT0iNjkiIHN0eWxlPSJmaWxsOm5vbmU7IiB3aWR0aD0iMjciIGhlaWdodD0iMi4yNSIvPiYjeGE7CQkJCQk8L2c+JiN4YTsJCQkJCTxnIGlkPSJzaGFwZTc3ODktMTUiIHRyYW5zZm9ybT0idHJhbnNsYXRlKDAsLTUzLjI1KSI+JiN4YTsJCQkJCQk8dGl0bGUgaWQ9InRpdGxlMjc2NTEiPnJlY3QxNjM5MDwvdGl0bGU+JiN4YTsJCQkJCQk8cmVjdCBpZD0icmVjdDI3NjUzIiB4PSIwIiB5PSI2OSIgc3R5bGU9ImZpbGw6IzJCQzdGNDsiIHdpZHRoPSIxOCIgaGVpZ2h0PSIyLjI1Ii8+JiN4YTsJCQkJCTwvZz4mI3hhOwkJCQkJPGcgaWQ9InNoYXBlNzc5MC0xNyIgdHJhbnNmb3JtPSJ0cmFuc2xhdGUoMCwtNTguNSkiPiYjeGE7CQkJCQkJPHRpdGxlIGlkPSJ0aXRsZTI3NjU2Ij5yZWN0MTYzOTI8L3RpdGxlPiYjeGE7CQkJCQkJPHJlY3QgaWQ9InJlY3QyNzY1OCIgeD0iMCIgeT0iNjkiIHN0eWxlPSJmaWxsOiMyQkM3RjQ7IiB3aWR0aD0iMTgiIGhlaWdodD0iMi4yNSIvPiYjeGE7CQkJCQk8L2c+JiN4YTsJCQkJCTxnIGlkPSJzaGFwZTc3OTEtMTkiIHRyYW5zZm9ybT0idHJhbnNsYXRlKDE4LC00OCkiPiYjeGE7CQkJCQkJPHRpdGxlIGlkPSJ0aXRsZTI3NjYxIj5yZWN0MTYzOTQ8L3RpdGxlPiYjeGE7CQkJCQkJPHJlY3QgaWQ9InJlY3QyNzY2MyIgeD0iMCIgeT0iNjkiIHN0eWxlPSJmaWxsOiM1NTZBOEE7IiB3aWR0aD0iMTkuNSIgaGVpZ2h0PSIyLjI1Ii8+JiN4YTsJCQkJCTwvZz4mI3hhOwkJCQkJPGcgaWQ9InNoYXBlNzc5Mi0yMSIgdHJhbnNmb3JtPSJ0cmFuc2xhdGUoMTgsLTUzLjI1KSI+JiN4YTsJCQkJCQk8dGl0bGUgaWQ9InRpdGxlMjc2NjYiPnJlY3QxNjM5NjwvdGl0bGU+JiN4YTsJCQkJCQk8cmVjdCBpZD0icmVjdDI3NjY4IiB4PSIwIiB5PSI2OSIgc3R5bGU9ImZpbGw6IzU1NkE4QTsiIHdpZHRoPSIxOS41IiBoZWlnaHQ9IjIuMjUiLz4mI3hhOwkJCQkJPC9nPiYjeGE7CQkJCQk8ZyBpZD0ic2hhcGU3NzkzLTIzIiB0cmFuc2Zvcm09InRyYW5zbGF0ZSgxOCwtNTguNSkiPiYjeGE7CQkJCQkJPHRpdGxlIGlkPSJ0aXRsZTI3NjcxIj5yZWN0MTYzOTg8L3RpdGxlPiYjeGE7CQkJCQkJPHJlY3QgaWQ9InJlY3QyNzY3MyIgeD0iMCIgeT0iNjkiIHN0eWxlPSJmaWxsOiM1NTZBOEE7IiB3aWR0aD0iMTkuNSIgaGVpZ2h0PSIyLjI1Ii8+JiN4YTsJCQkJCTwvZz4mI3hhOwkJCQk8L2c+JiN4YTsJCQkJPGcgaWQ9InNoYXBlNzc5NC0yNSIgdHJhbnNmb3JtPSJ0cmFuc2xhdGUoMC43NSwtNTkuMjUpIj4mI3hhOwkJCQkJPHRpdGxlIGlkPSJ0aXRsZTI3Njc3Ij5yZWN0MTY0MDI8L3RpdGxlPiYjeGE7CQkJCQk8cmVjdCBpZD0icmVjdDI3Njc5IiB4PSIwIiB5PSI2OSIgc3R5bGU9ImZpbGw6IzU1NkE4QTsiIHdpZHRoPSIyLjI1IiBoZWlnaHQ9IjIuMjUiLz4mI3hhOwkJCQk8L2c+JiN4YTsJCQkJPGcgaWQ9InNoYXBlNzc5NS0yNyIgdHJhbnNmb3JtPSJ0cmFuc2xhdGUoMC43NSwtNTQpIj4mI3hhOwkJCQkJPHRpdGxlIGlkPSJ0aXRsZTI3NjgyIj5yZWN0MTY0MDQ8L3RpdGxlPiYjeGE7CQkJCQk8cmVjdCBpZD0icmVjdDI3Njg0IiB4PSIwIiB5PSI2OSIgc3R5bGU9ImZpbGw6IzU1NkE4QTsiIHdpZHRoPSIyLjI1IiBoZWlnaHQ9IjIuMjUiLz4mI3hhOwkJCQk8L2c+JiN4YTsJCQkJPGcgaWQ9InNoYXBlNzc5Ni0yOSIgdHJhbnNmb3JtPSJ0cmFuc2xhdGUoMC43NSwtNDguNzUpIj4mI3hhOwkJCQkJPHRpdGxlIGlkPSJ0aXRsZTI3Njg3Ij5yZWN0MTY0MDY8L3RpdGxlPiYjeGE7CQkJCQk8cmVjdCBpZD0icmVjdDI3Njg5IiB4PSIwIiB5PSI2OSIgc3R5bGU9ImZpbGw6IzU1NkE4QTsiIHdpZHRoPSIyLjI1IiBoZWlnaHQ9IjIuMjUiLz4mI3hhOwkJCQk8L2c+JiN4YTsJCQk8L2c+JiN4YTsJCTwvZz4mI3hhOwkJPGcgaWQ9InNoYXBlNzc5Ny0zMSIgdHJhbnNmb3JtPSJ0cmFuc2xhdGUoMzIuNzEwNiwtMTIuMTI0KSI+JiN4YTsJCQk8dGl0bGUgaWQ9InRpdGxlMjc2OTQiPnBhdGg5NjEwPC90aXRsZT4mI3hhOwkJCSYjeGE7CQkJCTxwYXRoIGlkPSJwYXRoMjc2OTYiIGlua3NjYXBlOmNvbm5lY3Rvci1jdXJ2YXR1cmU9IjAiIHN0eWxlPSJmaWxsOiNENEUyRjU7c3Ryb2tlOiM1NTZBOEE7c3Ryb2tlLXdpZHRoOjAuNzU7c3Ryb2tlLW1pdGVybGltaXQ6MzsiIGQ9IiAgICAgTTE3LjAxLDY0LjIxYzAsNS41LTQuNDcsOS45Ni05Ljk3LDkuOTZjLTUuNSwwLTkuOTYtNC40Ny05Ljk2LTkuOTdjMC01LjUsNC40Ni05Ljk1LDkuOTYtOS45NiAgICAgQzEyLjU1LDU0LjI0LDE3LjAxLDU4LjcsMTcuMDEsNjQuMjF6Ii8+JiN4YTsJCTwvZz4mI3hhOwkJPGcgaWQ9InNoYXBlNzc5OC0zMyIgdHJhbnNmb3JtPSJ0cmFuc2xhdGUoMjQuNzMwNSwtNC4xMzg4MykiPiYjeGE7CQkJPHRpdGxlIGlkPSJ0aXRsZTI3Njk5Ij5wYXRoMjUzMC4yNDAyPC90aXRsZT4mI3hhOwkJCTxwYXRoIGlkPSJwYXRoMjc3MDEiIGlua3NjYXBlOmNvbm5lY3Rvci1jdXJ2YXR1cmU9IjAiIHN0eWxlPSJmaWxsOiM5MjczQjY7IiBkPSJNMjkuNTMsNTQuNDJsLTMuNTktMC40ICAgICBjLTAuMjgtMC4wMy0wLjUxLTAuMjQtMC41Ni0wLjUxYy0wLjIxLTAuODgtMC41My0xLjc0LTAuOTYtMi41NGMtMC4xMi0wLjI1LTAuMDgtMC41NCwwLjA5LTAuNzVsMi4yNS0yLjc4ICAgICBjMC4yMy0wLjI4LDAuMjEtMC42OS0wLjA1LTAuOTRsLTEuODctMS44NmMtMC4yNS0wLjI1LTAuNjUtMC4yNy0wLjkyLTAuMDVsLTIuNywyLjE2Yy0wLjIyLDAuMTctMC41MSwwLjE5LTAuNzUsMC4wNiAgICAgYy0wLjc1LTAuNDUtMS41Ni0wLjgtMi40LTEuMDVjLTAuMjYtMC4wOC0wLjQ1LTAuMzEtMC40OC0wLjU4bC0wLjM5LTMuNDZjLTAuMDQtMC4zNS0wLjM0LTAuNDctMC42OS0wLjQ3aC0yLjY1ICAgICBjLTAuMzUsMC0wLjY1LDAuMTMtMC42OSwwLjQ3bC0wLjM4LDMuNDJjLTAuMDQsMC4yOC0wLjI1LDAuNTEtMC41MywwLjU2Yy0wLjkzLDAuMjQtMS44MiwwLjYtMi42NiwxLjA4ICAgICBjLTAuMjQsMC4xMy0wLjUzLDAuMTEtMC43NS0wLjA2TDYuMiw0NC41OWMtMC4yNy0wLjIyLTAuNjctMC4yLTAuOTIsMC4wNGwtMS44OSwxLjg4Yy0wLjI1LDAuMjUtMC4yNywwLjY1LTAuMDUsMC45MmwyLjE3LDIuNzEgICAgIGMwLjE3LDAuMjIsMC4xOSwwLjUxLDAuMDYsMC43NWMtMC40NSwwLjgyLTAuNzksMS43LTEuMDEsMi42MWMtMC4wNywwLjI4LTAuMzIsMC40OS0wLjYxLDAuNTJMMC41Miw1NC40ICAgICBDMC4xOSw1NC40NS0wLjA0LDU0Ljc2LDAsNTUuMDlsMCwyLjY3Yy0wLjA0LDAuMzMsMC4xOSwwLjY0LDAuNTIsMC42OWwzLjY5LDAuNGMwLjI3LDAuMDMsMC40OSwwLjIyLDAuNTYsMC40NyAgICAgYzAuMjEsMC42OSwwLjUsMS4zNSwwLjg1LDEuOThjMC4xMywwLjI0LDAuMSwwLjU0LTAuMDcsMC43NWwtMi4yMiwyLjc0Yy0wLjIyLDAuMjctMC4yLDAuNjcsMC4wNSwwLjkybDEuODcsMS44NyAgICAgYzAuMjUsMC4yNSwwLjY1LDAuMjcsMC45MiwwLjA1bDIuNzMtMi4xOWMwLjIzLTAuMTgsMC41NC0wLjIsMC43OS0wLjA1YzAuNzIsMC40MSwxLjQ5LDAuNzQsMi4yOCwwLjk3ICAgICBjMC4yOCwwLjA3LDAuNDgsMC4zMSwwLjUxLDAuNTlsMC40LDMuNjhjMC4wNCwwLjM1LDAuMzQsMC42MiwwLjY5LDAuNjFsMi42NSwwYzAuMzUsMCwwLjY1LTAuMjYsMC42OS0wLjYxbDAuMzktMy42NCAgICAgYzAuMDMtMC4yOCwwLjIzLTAuNTEsMC41LTAuNThjMC44OS0wLjI0LDEuNzUtMC42LDIuNTUtMS4wNmMwLjI0LTAuMTMsMC41NC0wLjEsMC43NSwwLjA3bDIuNzcsMi4yNCAgICAgYzAuMjgsMC4yMiwwLjY3LDAuMiwwLjkyLTAuMDVsMS44Ny0xLjg3YzAuMjUtMC4yNSwwLjI3LTAuNjUsMC4wNS0wLjkybC0yLjI0LTIuODNjLTAuMTYtMC4yMi0wLjE5LTAuNTEtMC4wNi0wLjc1ICAgICBjMC4zMi0wLjU5LDAuNTgtMS4yLDAuNzgtMS44NGMwLjA4LTAuMjYsMC4zMS0wLjQ2LDAuNTgtMC40OWwzLjc2LTAuNDJDMjkuODcsNTguNDUsMzAsNTguMTUsMzAsNTcuOHYtMi42NSAgICAgQzMwLjAxLDU0Ljc2LDI5Ljg4LDU0LjQ2LDI5LjUzLDU0LjQyeiBNMTUuMDEsNjEuNjJjLTMuMDQsMC01LjUxLTIuNDYtNS41MS01LjVjMC0zLjA0LDIuNDYtNS41MSw1LjUtNS41MSAgICAgYzMuMDQsMCw1LjUxLDIuNDYsNS41MSw1LjVDMjAuNTEsNTkuMTUsMTguMDUsNjEuNjIsMTUuMDEsNjEuNjJDMTUuMDEsNjEuNjIsMTUuMDEsNjEuNjIsMTUuMDEsNjEuNjJ6Ii8+JiN4YTsJCTwvZz4mI3hhOwk8L2c+JiN4YTs8L2c+JiN4YTs8L3N2Zz4=;" vertex="1" parent="1">
          <mxGeometry x="-105.00000000000011" y="-46.99999999999636" width="55" height="70" as="geometry" />
        </mxCell>
        <mxCell id="0UxCvQG6T92VqQAPfvvK-147" value="J-HUB" style="shape=image;verticalLabelPosition=bottom;labelBackgroundColor=#ffffff;verticalAlign=top;aspect=fixed;imageAspect=0;image=data:image/svg+xml,PHN2ZyB4bWxuczpjYz0iaHR0cDovL2NyZWF0aXZlY29tbW9ucy5vcmcvbnMjIiB4bWxuczpkYz0iaHR0cDovL3B1cmwub3JnL2RjL2VsZW1lbnRzLzEuMS8iIHhtbG5zOmlua3NjYXBlPSJodHRwOi8vd3d3Lmlua3NjYXBlLm9yZy9uYW1lc3BhY2VzL2lua3NjYXBlIiB4bWxuczpyZGY9Imh0dHA6Ly93d3cudzMub3JnLzE5OTkvMDIvMjItcmRmLXN5bnRheC1ucyMiIHhtbG5zOnNvZGlwb2RpPSJodHRwOi8vc29kaXBvZGkuc291cmNlZm9yZ2UubmV0L0RURC9zb2RpcG9kaS0wLmR0ZCIgeG1sbnM6c3ZnPSJodHRwOi8vd3d3LnczLm9yZy8yMDAwL3N2ZyIgeG1sbnM9Imh0dHA6Ly93d3cudzMub3JnLzIwMDAvc3ZnIiB4bWxuczp4bGluaz0iaHR0cDovL3d3dy53My5vcmcvMTk5OS94bGluayIgdmVyc2lvbj0iMS4xIiBpZD0ic3ZnMTMzNTMxIiBpbmtzY2FwZTp2ZXJzaW9uPSIwLjkyLjMgKDI0MDU1NDYsIDIwMTgtMDMtMTEpIiBzb2RpcG9kaTpkb2NuYW1lPSJhZF9kbnNfc2VydmVyLnN2ZyIgeD0iMHB4IiB5PSIwcHgiIHZpZXdCb3g9IjAgMCA1NC40MiA2OS43NSIgc3R5bGU9ImVuYWJsZS1iYWNrZ3JvdW5kOm5ldyAwIDAgNTQuNDIgNjkuNzU7IiB4bWw6c3BhY2U9InByZXNlcnZlIj4mI3hhOzxzb2RpcG9kaTpuYW1lZHZpZXcgYm9yZGVyY29sb3I9IiM2NjY2NjYiIGJvcmRlcm9wYWNpdHk9IjEiIGZpdC1tYXJnaW4tYm90dG9tPSIwIiBmaXQtbWFyZ2luLWxlZnQ9IjAiIGZpdC1tYXJnaW4tcmlnaHQ9IjAiIGZpdC1tYXJnaW4tdG9wPSIwIiBncmlkdG9sZXJhbmNlPSIxMCIgZ3VpZGV0b2xlcmFuY2U9IjEwIiBpZD0ibmFtZWR2aWV3MTMzNTMzIiBpbmtzY2FwZTpjdXJyZW50LWxheWVyPSJzdmcxMzM1MzEiIGlua3NjYXBlOmN4PSI0My45Mzg1MTkiIGlua3NjYXBlOmN5PSI0Mi4yNjk0NDQiIGlua3NjYXBlOnBhZ2VvcGFjaXR5PSIwIiBpbmtzY2FwZTpwYWdlc2hhZG93PSIyIiBpbmtzY2FwZTp3aW5kb3ctaGVpZ2h0PSIxMDE3IiBpbmtzY2FwZTp3aW5kb3ctbWF4aW1pemVkPSIxIiBpbmtzY2FwZTp3aW5kb3ctd2lkdGg9IjE5MjAiIGlua3NjYXBlOndpbmRvdy14PSItOCIgaW5rc2NhcGU6d2luZG93LXk9Ii04IiBpbmtzY2FwZTp6b29tPSI4LjM4MDAzNyIgb2JqZWN0dG9sZXJhbmNlPSIxMCIgcGFnZWNvbG9yPSIjZmZmZmZmIiBzaG93Z3JpZD0iZmFsc2UiPiYjeGE7CTwvc29kaXBvZGk6bmFtZWR2aWV3PiYjeGE7PGcgaWQ9ImcxMzM1MjkiIHRyYW5zZm9ybT0idHJhbnNsYXRlKC0wLjc1MDE0MTUxLC0wLjc0OTk4OTk0KSI+JiN4YTsJPHRpdGxlIGlkPSJ0aXRsZTEzMzQwMiI+UGFnZS0xPC90aXRsZT4mI3hhOwk8ZyBpZD0iZ3JvdXA4MjY4LTEiIHRyYW5zZm9ybT0idHJhbnNsYXRlKDEuNSwtNy44NDU0NykiPiYjeGE7CQk8dGl0bGUgaWQ9InRpdGxlMTMzNDA0Ij5BRC9ETlMgU2VydmVyPC90aXRsZT4mI3hhOwkJPGcgaWQ9Imdyb3VwODI2OS0yIj4mI3hhOwkJCTx0aXRsZSBpZD0idGl0bGUxMzM0MDYiPlNoZWV0LjgyNjk8L3RpdGxlPiYjeGE7CQkJPGcgaWQ9Imdyb3VwODI3MC0zIj4mI3hhOwkJCQk8dGl0bGUgaWQ9InRpdGxlMTMzNDA4Ij5nMTY0MDg8L3RpdGxlPiYjeGE7CQkJCTxnIGlkPSJzaGFwZTgyNzEtNCI+JiN4YTsJCQkJCTx0aXRsZSBpZD0idGl0bGUxMzM0MTAiPnJlY3QxNjM4MDwvdGl0bGU+JiN4YTsJCQkJCSYjeGE7CQkJCQkJPHJlY3QgaWQ9InJlY3QxMzM0MTIiIHg9IjAiIHk9IjkuMzUiIHN0eWxlPSJmaWxsOiNGRkZGRkY7c3Ryb2tlOiM1NTZBOEE7c3Ryb2tlLXdpZHRoOjEuNTtzdHJva2UtbWl0ZXJsaW1pdDozOyIgd2lkdGg9IjM5Ljc1IiBoZWlnaHQ9IjY4LjI1Ii8+JiN4YTsJCQkJPC9nPiYjeGE7CQkJCTxnIGlkPSJncm91cDgyNzItNiIgdHJhbnNmb3JtPSJ0cmFuc2xhdGUoMS41LC0wLjc1KSI+JiN4YTsJCQkJCTx0aXRsZSBpZD0idGl0bGUxMzM0MTUiPmcxNjQwMDwvdGl0bGU+JiN4YTsJCQkJCTxnIGlkPSJzaGFwZTgyNzMtNyIgdHJhbnNmb3JtPSJ0cmFuc2xhdGUoMTgpIj4mI3hhOwkJCQkJCTx0aXRsZSBpZD0idGl0bGUxMzM0MTciPnJlY3QxNjM4MjwvdGl0bGU+JiN4YTsJCQkJCQk8cmVjdCBpZD0icmVjdDEzMzQxOSIgeD0iMCIgeT0iMTAuODUiIHN0eWxlPSJmaWxsOiNFNUU1RTU7IiB3aWR0aD0iMTkuNSIgaGVpZ2h0PSI2Ni43NSIvPiYjeGE7CQkJCQk8L2c+JiN4YTsJCQkJCTxnIGlkPSJzaGFwZTgyNzQtOSIgdHJhbnNmb3JtPSJ0cmFuc2xhdGUoMCwtNDgpIj4mI3hhOwkJCQkJCTx0aXRsZSBpZD0idGl0bGUxMzM0MjIiPnJlY3QxNjM4NDwvdGl0bGU+JiN4YTsJCQkJCQk8cmVjdCBpZD0icmVjdDEzMzQyNCIgeD0iMCIgeT0iNzUuMzUiIHN0eWxlPSJmaWxsOiMyQkM3RjQ7IiB3aWR0aD0iMTgiIGhlaWdodD0iMi4yNSIvPiYjeGE7CQkJCQk8L2c+JiN4YTsJCQkJCTxnIGlkPSJzaGFwZTgyNzUtMTEiIHRyYW5zZm9ybT0idHJhbnNsYXRlKDAsLTU4LjUpIj4mI3hhOwkJCQkJCTx0aXRsZSBpZD0idGl0bGUxMzM0MjciPnBvbHlnb24xNjM4NjwvdGl0bGU+JiN4YTsJCQkJCQk8cmVjdCBpZD0icmVjdDEzMzQyOSIgeD0iMCIgeT0iNzUuMzUiIHN0eWxlPSJmaWxsOm5vbmU7IiB3aWR0aD0iMjciIGhlaWdodD0iMi4yNSIvPiYjeGE7CQkJCQk8L2c+JiN4YTsJCQkJCTxnIGlkPSJzaGFwZTgyNzYtMTMiIHRyYW5zZm9ybT0idHJhbnNsYXRlKDAsLTU4LjUpIj4mI3hhOwkJCQkJCTx0aXRsZSBpZD0idGl0bGUxMzM0MzIiPnBvbHlsaW5lMTYzODg8L3RpdGxlPiYjeGE7CQkJCQkJPHJlY3QgaWQ9InJlY3QxMzM0MzQiIHg9IjAiIHk9Ijc1LjM1IiBzdHlsZT0iZmlsbDpub25lOyIgd2lkdGg9IjI3IiBoZWlnaHQ9IjIuMjUiLz4mI3hhOwkJCQkJPC9nPiYjeGE7CQkJCQk8ZyBpZD0ic2hhcGU4Mjc3LTE1IiB0cmFuc2Zvcm09InRyYW5zbGF0ZSgwLC01My4yNSkiPiYjeGE7CQkJCQkJPHRpdGxlIGlkPSJ0aXRsZTEzMzQzNyI+cmVjdDE2MzkwPC90aXRsZT4mI3hhOwkJCQkJCTxyZWN0IGlkPSJyZWN0MTMzNDM5IiB4PSIwIiB5PSI3NS4zNSIgc3R5bGU9ImZpbGw6IzJCQzdGNDsiIHdpZHRoPSIxOCIgaGVpZ2h0PSIyLjI1Ii8+JiN4YTsJCQkJCTwvZz4mI3hhOwkJCQkJPGcgaWQ9InNoYXBlODI3OC0xNyIgdHJhbnNmb3JtPSJ0cmFuc2xhdGUoMCwtNTguNSkiPiYjeGE7CQkJCQkJPHRpdGxlIGlkPSJ0aXRsZTEzMzQ0MiI+cmVjdDE2MzkyPC90aXRsZT4mI3hhOwkJCQkJCTxyZWN0IGlkPSJyZWN0MTMzNDQ0IiB4PSIwIiB5PSI3NS4zNSIgc3R5bGU9ImZpbGw6IzJCQzdGNDsiIHdpZHRoPSIxOCIgaGVpZ2h0PSIyLjI1Ii8+JiN4YTsJCQkJCTwvZz4mI3hhOwkJCQkJPGcgaWQ9InNoYXBlODI3OS0xOSIgdHJhbnNmb3JtPSJ0cmFuc2xhdGUoMTgsLTQ4KSI+JiN4YTsJCQkJCQk8dGl0bGUgaWQ9InRpdGxlMTMzNDQ3Ij5yZWN0MTYzOTQ8L3RpdGxlPiYjeGE7CQkJCQkJPHJlY3QgaWQ9InJlY3QxMzM0NDkiIHg9IjAiIHk9Ijc1LjM1IiBzdHlsZT0iZmlsbDojNTU2QThBOyIgd2lkdGg9IjE5LjUiIGhlaWdodD0iMi4yNSIvPiYjeGE7CQkJCQk8L2c+JiN4YTsJCQkJCTxnIGlkPSJzaGFwZTgyODAtMjEiIHRyYW5zZm9ybT0idHJhbnNsYXRlKDE4LC01My4yNSkiPiYjeGE7CQkJCQkJPHRpdGxlIGlkPSJ0aXRsZTEzMzQ1MiI+cmVjdDE2Mzk2PC90aXRsZT4mI3hhOwkJCQkJCTxyZWN0IGlkPSJyZWN0MTMzNDU0IiB4PSIwIiB5PSI3NS4zNSIgc3R5bGU9ImZpbGw6IzU1NkE4QTsiIHdpZHRoPSIxOS41IiBoZWlnaHQ9IjIuMjUiLz4mI3hhOwkJCQkJPC9nPiYjeGE7CQkJCQk8ZyBpZD0ic2hhcGU4MjgxLTIzIiB0cmFuc2Zvcm09InRyYW5zbGF0ZSgxOCwtNTguNSkiPiYjeGE7CQkJCQkJPHRpdGxlIGlkPSJ0aXRsZTEzMzQ1NyI+cmVjdDE2Mzk4PC90aXRsZT4mI3hhOwkJCQkJCTxyZWN0IGlkPSJyZWN0MTMzNDU5IiB4PSIwIiB5PSI3NS4zNSIgc3R5bGU9ImZpbGw6IzU1NkE4QTsiIHdpZHRoPSIxOS41IiBoZWlnaHQ9IjIuMjUiLz4mI3hhOwkJCQkJPC9nPiYjeGE7CQkJCTwvZz4mI3hhOwkJCQk8ZyBpZD0ic2hhcGU4MjgyLTI1IiB0cmFuc2Zvcm09InRyYW5zbGF0ZSgwLjc1LC01OS4yNSkiPiYjeGE7CQkJCQk8dGl0bGUgaWQ9InRpdGxlMTMzNDYzIj5yZWN0MTY0MDI8L3RpdGxlPiYjeGE7CQkJCQk8cmVjdCBpZD0icmVjdDEzMzQ2NSIgeD0iMCIgeT0iNzUuMzUiIHN0eWxlPSJmaWxsOiM1NTZBOEE7IiB3aWR0aD0iMi4yNSIgaGVpZ2h0PSIyLjI1Ii8+JiN4YTsJCQkJPC9nPiYjeGE7CQkJCTxnIGlkPSJzaGFwZTgyODMtMjciIHRyYW5zZm9ybT0idHJhbnNsYXRlKDAuNzUsLTU0KSI+JiN4YTsJCQkJCTx0aXRsZSBpZD0idGl0bGUxMzM0NjgiPnJlY3QxNjQwNDwvdGl0bGU+JiN4YTsJCQkJCTxyZWN0IGlkPSJyZWN0MTMzNDcwIiB4PSIwIiB5PSI3NS4zNSIgc3R5bGU9ImZpbGw6IzU1NkE4QTsiIHdpZHRoPSIyLjI1IiBoZWlnaHQ9IjIuMjUiLz4mI3hhOwkJCQk8L2c+JiN4YTsJCQkJPGcgaWQ9InNoYXBlODI4NC0yOSIgdHJhbnNmb3JtPSJ0cmFuc2xhdGUoMC43NSwtNDguNzUpIj4mI3hhOwkJCQkJPHRpdGxlIGlkPSJ0aXRsZTEzMzQ3MyI+cmVjdDE2NDA2PC90aXRsZT4mI3hhOwkJCQkJPHJlY3QgaWQ9InJlY3QxMzM0NzUiIHg9IjAiIHk9Ijc1LjM1IiBzdHlsZT0iZmlsbDojNTU2QThBOyIgd2lkdGg9IjIuMjUiIGhlaWdodD0iMi4yNSIvPiYjeGE7CQkJCTwvZz4mI3hhOwkJCTwvZz4mI3hhOwkJPC9nPiYjeGE7CQk8ZyBpZD0iZ3JvdXA4Mjg1LTMxIiB0cmFuc2Zvcm09InRyYW5zbGF0ZSgyNi4wMTI1LC00LjM5NDUzKSI+JiN4YTsJCQk8dGl0bGUgaWQ9InRpdGxlMTMzNDgwIj5BenVyZSBBY3RpdmUgRGlyZWN0b3J5PC90aXRsZT4mI3hhOwkJCTxnIGlkPSJzaGFwZTgyODYtMzIiPiYjeGE7CQkJCTx0aXRsZSBpZD0idGl0bGUxMzM0ODIiPlNoZWV0LjgyODY8L3RpdGxlPiYjeGE7CQkJCTxwYXRoIGlkPSJwYXRoMTMzNDg0IiBpbmtzY2FwZTpjb25uZWN0b3ItY3VydmF0dXJlPSIwIiBzdHlsZT0iZmlsbDojNTlCNEQ5OyIgZD0iTTEzLjgzLDc3LjZjLTAuNjgsMC0xLjMyLTAuMjctMS44MS0wLjc1ICAgICAgTDAuNzUsNjUuNTdDMC4yNyw2NS4xLDAsNjQuNDQsMCw2My43N3MwLjI3LTEuMzMsMC43NS0xLjgxbDExLjI3LTExLjI3YzAuNDktMC40OSwxLjEzLTAuNzUsMS44MS0wLjc1ICAgICAgYzAuNjgsMCwxLjMyLDAuMjYsMS44LDAuNzVsMTEuMjgsMTEuMjdjMC40OCwwLjQ4LDAuNzUsMS4xMywwLjc1LDEuODFjMCwwLjY4LTAuMjcsMS4zMi0wLjc1LDEuOEwxNS42Myw3Ni44NSAgICAgIEMxNS4xNSw3Ny4zMywxNC41MSw3Ny42LDEzLjgzLDc3LjZ6Ii8+JiN4YTsJCQk8L2c+JiN4YTsJCQk8ZyBpZD0ic2hhcGU4Mjg3LTM0IiB0cmFuc2Zvcm09InRyYW5zbGF0ZSg0LjEzNTYxLC0zLjc4MTA2KSI+JiN4YTsJCQkJPHRpdGxlIGlkPSJ0aXRsZTEzMzQ4NyI+U2hlZXQuODI4NzwvdGl0bGU+JiN4YTsJCQkJPHBhdGggaWQ9InBhdGgxMzM0ODkiIGlua3NjYXBlOmNvbm5lY3Rvci1jdXJ2YXR1cmU9IjAiIHN0eWxlPSJmaWxsOiNGRkZGRkY7IiBkPSJNMTcuMjIsNjUuMzljLTEuMTksMC0yLjE2LDAuOTctMi4xNiwyLjE2ICAgICAgYzAsMC40NCwwLjEzLDAuODQsMC4zNiwxLjE4bC00LjI5LDQuMjljLTAuMTEtMC4wOC0wLjIzLTAuMTUtMC4zNi0wLjIxVjYxLjg4YzAuNjUtMC4zNywxLjA4LTEuMDYsMS4wOC0xLjg2ICAgICAgYzAtMS4xOS0wLjk2LTIuMTYtMi4xNi0yLjE2Yy0xLjE5LDAtMi4xNiwwLjk3LTIuMTYsMi4xNmMwLDAuOCwwLjQ0LDEuNDksMS4wOCwxLjg2djEwLjkzYy0wLjEyLDAuMDYtMC4yNCwwLjEyLTAuMzQsMC4yICAgICAgbC00LjI5LTQuMjljMC4yMS0wLjM0LDAuMzQtMC43NCwwLjM0LTEuMTdjMC0xLjE5LTAuOTYtMi4xNi0yLjE2LTIuMTZDMC45Nyw2NS4zOSwwLDY2LjM2LDAsNjcuNTVzMC45NywyLjE2LDIuMTYsMi4xNiAgICAgIGMwLjI1LDAsMC40OC0wLjA1LDAuNzEtMC4xM2w0LjUxLDQuNTFjLTAuMTMsMC4zMS0wLjIxLDAuNjQtMC4yMSwwLjk5YzAsMS4zOSwxLjEzLDIuNTIsMi41MiwyLjUyczIuNTItMS4xMywyLjUyLTIuNTIgICAgICBjMC0wLjM1LTAuMDctMC42Ny0wLjItMC45N2w0LjUyLTQuNTJjMC4yMiwwLjA3LDAuNDUsMC4xMiwwLjY5LDAuMTJjMS4xOSwwLDIuMTYtMC45NywyLjE2LTIuMTZTMTguNDIsNjUuMzksMTcuMjIsNjUuMzl6Ii8+JiN4YTsJCQk8L2c+JiN4YTsJCQk8ZyBpZD0ic2hhcGU4Mjg4LTM2IiB0cmFuc2Zvcm09InJvdGF0ZSgxMzQuOTkyLDExLjY5MDA5Niw2OS41OTU2MykiPiYjeGE7CQkJCTx0aXRsZSBpZD0idGl0bGUxMzM0OTIiPlNoZWV0LjgyODg8L3RpdGxlPiYjeGE7CQkJCTxyZWN0IGlkPSJyZWN0MTMzNDk0IiB4PSIwIiB5PSI2Ni4xNiIgc3R5bGU9ImZpbGw6I0ZGRkZGRjtmaWxsLW9wYWNpdHk6MC41OyIgd2lkdGg9IjEuNCIgaGVpZ2h0PSIxMS40NCIvPiYjeGE7CQkJPC9nPiYjeGE7CQkJPGcgaWQ9InNoYXBlODI4OS0zOCIgdHJhbnNmb3JtPSJyb3RhdGUoNDUsMTkuMzMzMzk4LDc3LjA1MzM5NikiPiYjeGE7CQkJCTx0aXRsZSBpZD0idGl0bGUxMzM0OTciPlNoZWV0LjgyODk8L3RpdGxlPiYjeGE7CQkJCSYjeGE7CQkJCQk8cmVjdCBpZD0icmVjdDEzMzQ5OSIgeD0iLTUuMDIiIHk9IjcxLjE4IiB0cmFuc2Zvcm09Im1hdHJpeCgyLjUzNTE4MWUtMDYgMSAtMSAyLjUzNTE4MWUtMDYgNzIuNTc1MiA3MS4xNzg4KSIgc3R5bGU9ImZpbGw6I0ZGRkZGRjtmaWxsLW9wYWNpdHk6MC41OyIgd2lkdGg9IjExLjQ0IiBoZWlnaHQ9IjEuNCIvPiYjeGE7CQkJPC9nPiYjeGE7CQkJPGcgaWQ9InNoYXBlODI5MC00MCIgdHJhbnNmb3JtPSJ0cmFuc2xhdGUoMTIuMzA0NSwtNC43OTk4OSkiPiYjeGE7CQkJCTx0aXRsZSBpZD0idGl0bGUxMzM1MDIiPlNoZWV0LjgyOTA8L3RpdGxlPiYjeGE7CQkJCTxwYXRoIGlkPSJwYXRoMTMzNTA0IiBpbmtzY2FwZTpjb25uZWN0b3ItY3VydmF0dXJlPSIwIiBzdHlsZT0iZmlsbDojQjhENDMyOyIgZD0iTTMsNzYuMWMwLDAuODItMC42NywxLjUtMS41LDEuNSAgICAgIFMwLDc2LjkyLDAsNzYuMWMwLTAuODMsMC42Ny0xLjUsMS41LTEuNVMzLDc1LjI3LDMsNzYuMXoiLz4mI3hhOwkJCTwvZz4mI3hhOwkJCTxnIGlkPSJzaGFwZTgyOTEtNDIiIHRyYW5zZm9ybT0idHJhbnNsYXRlKDEyLjYyNTMsLTIwLjE1NDIpIj4mI3hhOwkJCQk8dGl0bGUgaWQ9InRpdGxlMTMzNTA3Ij5TaGVldC44MjkxPC90aXRsZT4mI3hhOwkJCQk8cGF0aCBpZD0icGF0aDEzMzUwOSIgaW5rc2NhcGU6Y29ubmVjdG9yLWN1cnZhdHVyZT0iMCIgc3R5bGU9ImZpbGw6I0I4RDQzMjsiIGQ9Ik0yLjQsNzYuMzljMCwwLjY3LTAuNTMsMS4yMS0xLjIsMS4yMSAgICAgIGMtMC42NiwwLTEuMi0wLjU0LTEuMi0xLjIxYzAtMC42NiwwLjU0LTEuMiwxLjItMS4yQzEuODcsNzUuMTksMi40LDc1LjczLDIuNCw3Ni4zOXoiLz4mI3hhOwkJCTwvZz4mI3hhOwkJCTxnIGlkPSJzaGFwZTgyOTItNDQiIHRyYW5zZm9ybT0idHJhbnNsYXRlKDUuMDk2OTEsLTEyLjYyNTMpIj4mI3hhOwkJCQk8dGl0bGUgaWQ9InRpdGxlMTMzNTEyIj5TaGVldC44MjkyPC90aXRsZT4mI3hhOwkJCQk8cGF0aCBpZD0icGF0aDEzMzUxNCIgaW5rc2NhcGU6Y29ubmVjdG9yLWN1cnZhdHVyZT0iMCIgc3R5bGU9ImZpbGw6I0I4RDQzMjsiIGQ9Ik0yLjQsNzYuMzljMCwwLjY3LTAuNTMsMS4yMS0xLjIsMS4yMSAgICAgIGMtMC42NiwwLTEuMi0wLjU0LTEuMi0xLjIxYzAtMC42NiwwLjU0LTEuMiwxLjItMS4yQzEuODcsNzUuMTksMi40LDc1LjczLDIuNCw3Ni4zOXoiLz4mI3hhOwkJCTwvZz4mI3hhOwkJCTxnIGlkPSJzaGFwZTgyOTMtNDYiIHRyYW5zZm9ybT0idHJhbnNsYXRlKDIwLjE1NDgsLTEyLjYyNTMpIj4mI3hhOwkJCQk8dGl0bGUgaWQ9InRpdGxlMTMzNTE3Ij5TaGVldC44MjkzPC90aXRsZT4mI3hhOwkJCQk8cGF0aCBpZD0icGF0aDEzMzUxOSIgaW5rc2NhcGU6Y29ubmVjdG9yLWN1cnZhdHVyZT0iMCIgc3R5bGU9ImZpbGw6I0I4RDQzMjsiIGQ9Ik0yLjQxLDc2LjM5YzAsMC42Ny0wLjU0LDEuMjEtMS4yMSwxLjIxICAgICAgYy0wLjY2LDAtMS4yLTAuNTQtMS4yLTEuMjFjMC0wLjY2LDAuNTQtMS4yLDEuMi0xLjJDMS44Nyw3NS4xOSwyLjQxLDc1LjczLDIuNDEsNzYuMzl6Ii8+JiN4YTsJCQk8L2c+JiN4YTsJCQk8ZyBpZD0ic2hhcGU4Mjk0LTQ4IiB0cmFuc2Zvcm09InRyYW5zbGF0ZSgwLC01LjYzOTUxKSI+JiN4YTsJCQkJPHRpdGxlIGlkPSJ0aXRsZTEzMzUyMiI+U2hlZXQuODI5NDwvdGl0bGU+JiN4YTsJCQkJPHBhdGggaWQ9InBhdGgxMzM1MjQiIGlua3NjYXBlOmNvbm5lY3Rvci1jdXJ2YXR1cmU9IjAiIHN0eWxlPSJmaWxsOiNGRkZGRkY7ZmlsbC1vcGFjaXR5OjAuMDk4OyIgZD0iTTE1LjYzLDU2LjMzICAgICAgYy0wLjQ4LTAuNDktMS4xMi0wLjc1LTEuOC0wLjc1cy0xLjMyLDAuMjYtMS44LDAuNzVMMC43NSw2Ny42QzAuMjcsNjguMDgsMCw2OC43NCwwLDY5LjQxYzAsMC42NywwLjI3LDEuMzMsMC43NSwxLjhsNi4zOCw2LjM5ICAgICAgbDEyLjAxLTE3Ljc2TDE1LjYzLDU2LjMzeiIvPiYjeGE7CQkJPC9nPiYjeGE7CQk8L2c+JiN4YTsJPC9nPiYjeGE7PC9nPiYjeGE7PC9zdmc+;" vertex="1" parent="1">
          <mxGeometry x="107.00000000000017" y="-40" width="54" height="70" as="geometry" />
        </mxCell>
        <mxCell id="0UxCvQG6T92VqQAPfvvK-177" value="" style="edgeStyle=none;curved=1;rounded=0;orthogonalLoop=1;jettySize=auto;html=1;fontSize=12;startSize=8;endSize=8;entryX=0.5;entryY=0;entryDx=0;entryDy=0;dashed=1;strokeWidth=2;startArrow=classicThin;startFill=1;endArrow=none;" edge="1" parent="1" source="0UxCvQG6T92VqQAPfvvK-7" target="0UxCvQG6T92VqQAPfvvK-6">
          <mxGeometry relative="1" as="geometry" />
        </mxCell>
        <mxCell id="0UxCvQG6T92VqQAPfvvK-178" value="" style="edgeStyle=none;curved=1;rounded=0;orthogonalLoop=1;jettySize=auto;html=1;fontSize=12;startSize=8;endSize=8;dashed=1;strokeWidth=2;" edge="1" parent="1" source="0UxCvQG6T92VqQAPfvvK-6">
          <mxGeometry relative="1" as="geometry">
            <mxPoint x="134" y="277" as="targetPoint" />
          </mxGeometry>
        </mxCell>
        <mxCell id="0UxCvQG6T92VqQAPfvvK-180" style="edgeStyle=none;curved=1;rounded=0;orthogonalLoop=1;jettySize=auto;html=1;entryX=0.5;entryY=1;entryDx=0;entryDy=0;fontSize=12;startSize=8;endSize=8;dashed=1;strokeWidth=2;" edge="1" parent="1" target="0UxCvQG6T92VqQAPfvvK-148">
          <mxGeometry relative="1" as="geometry">
            <mxPoint x="-45" y="276" as="sourcePoint" />
          </mxGeometry>
        </mxCell>
        <mxCell id="0UxCvQG6T92VqQAPfvvK-181" value="" style="aspect=fixed;sketch=0;html=1;dashed=0;whitespace=wrap;verticalLabelPosition=bottom;verticalAlign=top;fillColor=#2875E2;strokeColor=#ffffff;points=[[0.005,0.63,0],[0.1,0.2,0],[0.9,0.2,0],[0.5,0,0],[0.995,0.63,0],[0.72,0.99,0],[0.5,1,0],[0.28,0.99,0]];shape=mxgraph.kubernetes.icon2;kubernetesLabel=1;prIcon=api" vertex="1" parent="1">
          <mxGeometry x="435" y="100.5" width="72.92" height="70" as="geometry" />
        </mxCell>
        <mxCell id="0UxCvQG6T92VqQAPfvvK-182" value="" style="aspect=fixed;sketch=0;html=1;dashed=0;whitespace=wrap;verticalLabelPosition=bottom;verticalAlign=top;fillColor=#2875E2;strokeColor=#ffffff;points=[[0.005,0.63,0],[0.1,0.2,0],[0.9,0.2,0],[0.5,0,0],[0.995,0.63,0],[0.72,0.99,0],[0.5,1,0],[0.28,0.99,0]];shape=mxgraph.kubernetes.icon2;kubernetesLabel=1;prIcon=api" vertex="1" parent="1">
          <mxGeometry x="440.68" y="276" width="65.63" height="63" as="geometry" />
        </mxCell>
        <mxCell id="0UxCvQG6T92VqQAPfvvK-187" value="" style="rounded=0;whiteSpace=wrap;html=1;dashed=1;" vertex="1" parent="1">
          <mxGeometry x="239" y="1186" width="240" height="72" as="geometry" />
        </mxCell>
        <mxCell id="0UxCvQG6T92VqQAPfvvK-186" value="ELK (Elastic)" style="shape=datastore;html=1;labelPosition=right;verticalLabelPosition=middle;align=left;verticalAlign=middle;" vertex="1" parent="1">
          <mxGeometry x="252" y="1192" width="60" height="60" as="geometry" />
        </mxCell>
        <mxCell id="0UxCvQG6T92VqQAPfvvK-188" style="edgeStyle=none;curved=1;rounded=0;orthogonalLoop=1;jettySize=auto;html=1;entryX=0.25;entryY=0;entryDx=0;entryDy=0;fontSize=12;startSize=8;endSize=8;dashed=1;strokeWidth=2;" edge="1" parent="1">
          <mxGeometry relative="1" as="geometry">
            <mxPoint x="444" y="1086" as="sourcePoint" />
            <mxPoint x="444" y="1179" as="targetPoint" />
          </mxGeometry>
        </mxCell>
        <mxCell id="0UxCvQG6T92VqQAPfvvK-190" value="" style="shape=image;html=1;verticalAlign=top;verticalLabelPosition=bottom;labelBackgroundColor=#ffffff;imageAspect=0;aspect=fixed;image=https://cdn2.iconfinder.com/data/icons/whcompare-servers-web-hosting/50/sftp-128.png" vertex="1" parent="1">
          <mxGeometry x="-483" y="212" width="128" height="128" as="geometry" />
        </mxCell>
      </root>
    </mxGraphModel>
  </diagram>
</mxfile>
